STARTFONT 2.1
COMMENT
COMMENT Converted from OpenType font "Q:\font stuff\winfont\TeutonWeiss.otf" by "otf2bdf 3.0".
COMMENT
FONT -FreeType-Teuton Weiss-Medium-R-Normal--28-280-72-72-P-96-ISO10646-1
SIZE 28 72 72
FONTBOUNDINGBOX 24 31 -2 -7
STARTPROPERTIES 19
FOUNDRY "FreeType"
FAMILY_NAME "Teuton Weiss"
WEIGHT_NAME "Medium"
SLANT "R"
SETWIDTH_NAME "Normal"
ADD_STYLE_NAME ""
PIXEL_SIZE 28
POINT_SIZE 280
RESOLUTION_X 72
RESOLUTION_Y 72
SPACING "P"
AVERAGE_WIDTH 96
CHARSET_REGISTRY "ISO10646"
CHARSET_ENCODING "1"
FONT_ASCENT 23
FONT_DESCENT 5
COPYRIGHT "Copyright Copr. 2001, Frantisek Storm, www.stormtype.com. All rights reserved."
_OTF_FONTFILE "Q:\font stuff\winfont\TeutonWeiss.otf"
_OTF_PSNAME "TeutonWeiss"
ENDPROPERTIES
CHARS 356
STARTCHAR 0020
ENCODING 32
SWIDTH 250 0
DWIDTH 7 0
BBX 0 0 0 0
BITMAP
ENDCHAR
STARTCHAR 0021
ENCODING 33
SWIDTH 178 0
DWIDTH 5 0
BBX 1 20 2 0
BITMAP
80
80
80
80
80
80
80
80
80
80
80
80
80
80
80
80
00
00
00
80
ENDCHAR
STARTCHAR 0022
ENCODING 34
SWIDTH 250 0
DWIDTH 7 0
BBX 3 4 2 15
BITMAP
A0
A0
A0
A0
ENDCHAR
STARTCHAR 0023
ENCODING 35
SWIDTH 428 0
DWIDTH 12 0
BBX 11 20 1 0
BITMAP
0840
0840
0840
1040
1080
1080
7FE0
1080
1080
2080
2100
2100
2100
FFC0
2100
4100
4200
4200
4200
4200
ENDCHAR
STARTCHAR 0024
ENCODING 36
SWIDTH 392 0
DWIDTH 11 0
BBX 8 20 2 0
BITMAP
10
10
10
FF
80
80
80
40
20
18
04
02
01
01
01
01
FE
10
10
10
ENDCHAR
STARTCHAR 0025
ENCODING 37
SWIDTH 535 0
DWIDTH 15 0
BBX 12 20 1 0
BITMAP
7810
8420
8420
8440
8480
8480
8500
8500
8600
7A00
0400
05E0
0A10
0A10
1210
1210
2210
4210
4210
81E0
ENDCHAR
STARTCHAR 0026
ENCODING 38
SWIDTH 571 0
DWIDTH 16 0
BBX 14 20 2 0
BITMAP
7FE0
8000
8000
8000
8000
8000
8000
8000
7FFC
8020
8020
8020
8020
8020
8020
8020
8020
8020
8020
7F3C
ENDCHAR
STARTCHAR 0027
ENCODING 39
SWIDTH 214 0
DWIDTH 6 0
BBX 1 4 2 15
BITMAP
80
80
80
80
ENDCHAR
STARTCHAR 0028
ENCODING 40
SWIDTH 321 0
DWIDTH 9 0
BBX 6 26 2 -6
BITMAP
3C
40
80
80
80
80
80
80
80
80
80
80
80
80
80
80
80
80
80
80
80
80
80
80
40
3C
ENDCHAR
STARTCHAR 0029
ENCODING 41
SWIDTH 321 0
DWIDTH 9 0
BBX 6 26 1 -6
BITMAP
F0
08
04
04
04
04
04
04
04
04
04
04
04
04
04
04
04
04
04
04
04
04
04
04
08
F0
ENDCHAR
STARTCHAR 002A
ENCODING 42
SWIDTH 392 0
DWIDTH 11 0
BBX 9 8 1 11
BITMAP
0800
0800
0800
C980
3E00
1800
1400
2200
ENDCHAR
STARTCHAR 002B
ENCODING 43
SWIDTH 464 0
DWIDTH 13 0
BBX 11 11 1 3
BITMAP
0400
0400
0400
0400
0400
FFE0
0400
0400
0400
0400
0400
ENDCHAR
STARTCHAR 002C
ENCODING 44
SWIDTH 178 0
DWIDTH 5 0
BBX 2 5 1 -3
BITMAP
40
40
40
80
80
ENDCHAR
STARTCHAR 002D
ENCODING 45
SWIDTH 285 0
DWIDTH 8 0
BBX 5 1 1 8
BITMAP
F8
ENDCHAR
STARTCHAR 002E
ENCODING 46
SWIDTH 178 0
DWIDTH 5 0
BBX 1 1 2 1
BITMAP
80
ENDCHAR
STARTCHAR 002F
ENCODING 47
SWIDTH 392 0
DWIDTH 11 0
BBX 11 26 0 -6
BITMAP
0020
0020
0040
0040
0040
0080
0080
0100
0100
0200
0200
0200
0400
0400
0800
0800
0800
1000
1000
2000
2000
2000
4000
4000
8000
8000
ENDCHAR
STARTCHAR 0030
ENCODING 48
SWIDTH 500 0
DWIDTH 14 0
BBX 10 20 2 0
BITMAP
7F80
8040
8040
8040
8040
8040
8040
8040
8040
8040
8040
8040
8040
8040
8040
8040
8040
8040
8040
7F80
ENDCHAR
STARTCHAR 0031
ENCODING 49
SWIDTH 500 0
DWIDTH 14 0
BBX 9 20 3 0
BITMAP
0800
1800
6800
8800
0800
0800
0800
0800
0800
0800
0800
0800
0800
0800
0800
0800
0800
0800
0800
FF80
ENDCHAR
STARTCHAR 0032
ENCODING 50
SWIDTH 500 0
DWIDTH 14 0
BBX 10 20 2 0
BITMAP
FF80
0040
0040
0040
0040
0040
0080
0100
0600
0800
1000
2000
4000
8000
8000
8000
8000
8000
8000
FFC0
ENDCHAR
STARTCHAR 0033
ENCODING 51
SWIDTH 500 0
DWIDTH 14 0
BBX 10 20 2 0
BITMAP
FF80
0040
0040
0040
0040
0040
0040
0040
00C0
3F80
00C0
0040
0040
0040
0040
0040
0040
0040
0040
FF80
ENDCHAR
STARTCHAR 0034
ENCODING 52
SWIDTH 500 0
DWIDTH 14 0
BBX 12 20 1 1
BITMAP
0080
0180
0280
0480
0480
0880
0880
1080
2080
2080
4080
4080
8080
FFF0
0080
0080
0080
0080
0080
0080
ENDCHAR
STARTCHAR 0035
ENCODING 53
SWIDTH 500 0
DWIDTH 14 0
BBX 10 20 2 0
BITMAP
FFC0
8000
8000
8000
8000
8000
8000
8000
8000
FF80
0040
0040
0040
0040
0040
0040
0040
0040
0040
FF80
ENDCHAR
STARTCHAR 0036
ENCODING 54
SWIDTH 500 0
DWIDTH 14 0
BBX 10 20 2 0
BITMAP
7FC0
8000
8000
8000
8000
8000
8000
8000
8000
FF80
8040
8040
8040
8040
8040
8040
8040
8040
8040
7F80
ENDCHAR
STARTCHAR 0037
ENCODING 55
SWIDTH 500 0
DWIDTH 14 0
BBX 10 20 2 0
BITMAP
FFC0
0040
0080
0080
0080
0100
0100
0100
0200
0200
0200
0400
0400
0400
0800
0800
0800
1000
1000
1000
ENDCHAR
STARTCHAR 0038
ENCODING 56
SWIDTH 500 0
DWIDTH 14 0
BBX 10 20 2 0
BITMAP
7F80
8040
8040
8040
8040
8040
8040
8040
C0C0
7F80
C0C0
8040
8040
8040
8040
8040
8040
8040
8040
7F80
ENDCHAR
STARTCHAR 0039
ENCODING 57
SWIDTH 500 0
DWIDTH 14 0
BBX 10 20 2 0
BITMAP
7F80
8040
8040
8040
8040
8040
8040
8040
8040
7FC0
0040
0040
0040
0040
0040
0040
0040
0040
0040
FF80
ENDCHAR
STARTCHAR 003A
ENCODING 58
SWIDTH 178 0
DWIDTH 5 0
BBX 1 14 2 0
BITMAP
80
00
00
00
00
00
00
00
00
00
00
00
00
80
ENDCHAR
STARTCHAR 003B
ENCODING 59
SWIDTH 178 0
DWIDTH 5 0
BBX 2 18 1 -4
BITMAP
40
00
00
00
00
00
00
00
00
00
00
00
00
40
40
40
80
80
ENDCHAR
STARTCHAR 003C
ENCODING 60
SWIDTH 464 0
DWIDTH 13 0
BBX 10 11 1 4
BITMAP
0080
0300
0C00
3000
4000
C000
2000
1800
0600
0100
00C0
ENDCHAR
STARTCHAR 003D
ENCODING 61
SWIDTH 464 0
DWIDTH 13 0
BBX 10 7 1 5
BITMAP
FFC0
0000
0000
0000
0000
0000
FFC0
ENDCHAR
STARTCHAR 003E
ENCODING 62
SWIDTH 464 0
DWIDTH 13 0
BBX 10 11 1 4
BITMAP
4000
3000
0C00
0300
0080
0040
0180
0600
1800
2000
C000
ENDCHAR
STARTCHAR 003F
ENCODING 63
SWIDTH 392 0
DWIDTH 11 0
BBX 9 20 2 0
BITMAP
FF00
0080
0080
0080
0080
0100
0200
0400
0800
1000
1000
1000
1000
1000
1000
1000
0000
0000
0000
1000
ENDCHAR
STARTCHAR 0040
ENCODING 64
SWIDTH 678 0
DWIDTH 19 0
BBX 16 20 2 -3
BITMAP
7FC0
8020
8020
8020
8020
83E1
8421
8421
8421
8421
8421
8421
8421
8421
83E1
8001
8001
8001
8001
7FFE
ENDCHAR
STARTCHAR 0041
ENCODING 65
SWIDTH 500 0
DWIDTH 14 0
BBX 13 20 1 1
BITMAP
0600
0500
0500
0500
0900
0880
0880
1080
1040
1040
2040
2020
2020
3FE0
4020
4010
4010
8010
8008
8008
ENDCHAR
STARTCHAR 0042
ENCODING 66
SWIDTH 571 0
DWIDTH 16 0
BBX 11 20 2 0
BITMAP
FFC0
8020
8020
8020
8020
8020
8020
8020
8060
FFC0
8060
8020
8020
8020
8020
8020
8020
8020
8020
FFC0
ENDCHAR
STARTCHAR 0043
ENCODING 67
SWIDTH 500 0
DWIDTH 14 0
BBX 10 20 2 0
BITMAP
7FC0
8000
8000
8000
8000
8000
8000
8000
8000
8000
8000
8000
8000
8000
8000
8000
8000
8000
8000
7FC0
ENDCHAR
STARTCHAR 0044
ENCODING 68
SWIDTH 535 0
DWIDTH 15 0
BBX 11 20 2 0
BITMAP
FFC0
8020
8020
8020
8020
8020
8020
8020
8020
8020
8020
8020
8020
8020
8020
8020
8020
8020
8020
FFC0
ENDCHAR
STARTCHAR 0045
ENCODING 69
SWIDTH 464 0
DWIDTH 13 0
BBX 10 20 2 0
BITMAP
FFC0
8000
8000
8000
8000
8000
8000
8000
8000
FF00
8000
8000
8000
8000
8000
8000
8000
8000
8000
FFC0
ENDCHAR
STARTCHAR 0046
ENCODING 70
SWIDTH 428 0
DWIDTH 12 0
BBX 10 20 2 0
BITMAP
FFC0
8000
8000
8000
8000
8000
8000
8000
8000
FF00
8000
8000
8000
8000
8000
8000
8000
8000
8000
8000
ENDCHAR
STARTCHAR 0047
ENCODING 71
SWIDTH 535 0
DWIDTH 15 0
BBX 11 20 2 0
BITMAP
7FE0
8000
8000
8000
8000
8000
8000
8000
8000
87E0
8020
8020
8020
8020
8020
8020
8020
8020
8020
7FC0
ENDCHAR
STARTCHAR 0048
ENCODING 72
SWIDTH 535 0
DWIDTH 15 0
BBX 11 20 2 0
BITMAP
8020
8020
8020
8020
8020
8020
8020
8020
8020
FFE0
8020
8020
8020
8020
8020
8020
8020
8020
8020
8020
ENDCHAR
STARTCHAR 0049
ENCODING 73
SWIDTH 214 0
DWIDTH 6 0
BBX 1 20 2 0
BITMAP
80
80
80
80
80
80
80
80
80
80
80
80
80
80
80
80
80
80
80
80
ENDCHAR
STARTCHAR 004A
ENCODING 74
SWIDTH 321 0
DWIDTH 9 0
BBX 6 20 1 0
BITMAP
04
04
04
04
04
04
04
04
04
04
04
04
04
04
04
04
04
04
04
F8
ENDCHAR
STARTCHAR 004B
ENCODING 75
SWIDTH 500 0
DWIDTH 14 0
BBX 11 20 2 0
BITMAP
8040
8040
8080
8080
8100
8100
8200
8200
8400
F800
8400
8200
8200
8100
8100
8080
8080
8040
8040
8020
ENDCHAR
STARTCHAR 004C
ENCODING 76
SWIDTH 464 0
DWIDTH 13 0
BBX 10 20 2 0
BITMAP
8000
8000
8000
8000
8000
8000
8000
8000
8000
8000
8000
8000
8000
8000
8000
8000
8000
8000
8000
FFC0
ENDCHAR
STARTCHAR 004D
ENCODING 77
SWIDTH 607 0
DWIDTH 17 0
BBX 13 20 2 0
BITMAP
8008
C018
C028
A028
A028
A048
9048
9088
8888
8888
8908
8508
8608
8208
8008
8008
8008
8008
8008
8008
ENDCHAR
STARTCHAR 004E
ENCODING 78
SWIDTH 571 0
DWIDTH 16 0
BBX 11 19 2 1
BITMAP
C020
C020
A020
A020
9020
9020
8820
8820
8420
8420
8420
8220
8220
8120
8120
80A0
80A0
8060
8060
ENDCHAR
STARTCHAR 004F
ENCODING 79
SWIDTH 535 0
DWIDTH 15 0
BBX 11 20 2 0
BITMAP
7FC0
8020
8020
8020
8020
8020
8020
8020
8020
8020
8020
8020
8020
8020
8020
8020
8020
8020
8020
7FC0
ENDCHAR
STARTCHAR 0050
ENCODING 80
SWIDTH 535 0
DWIDTH 15 0
BBX 11 20 2 0
BITMAP
FFC0
8020
8020
8020
8020
8020
8020
8020
8020
FFC0
8000
8000
8000
8000
8000
8000
8000
8000
8000
8000
ENDCHAR
STARTCHAR 0051
ENCODING 81
SWIDTH 535 0
DWIDTH 15 0
BBX 11 26 2 -6
BITMAP
7FC0
8020
8020
8020
8020
8020
8020
8020
8020
8020
8020
8020
8020
8020
8020
8020
8420
8420
8220
7FC0
0200
0100
0100
0100
0080
0080
ENDCHAR
STARTCHAR 0052
ENCODING 82
SWIDTH 571 0
DWIDTH 16 0
BBX 12 20 2 0
BITMAP
FFC0
8020
8020
8020
8020
8020
8020
8020
8020
FFC0
8100
8080
8080
8080
8040
8040
8020
8020
8020
8010
ENDCHAR
STARTCHAR 0053
ENCODING 83
SWIDTH 500 0
DWIDTH 14 0
BBX 10 20 2 0
BITMAP
7FC0
8000
8000
8000
8000
8000
4000
2000
1000
0C00
0600
0100
0080
0040
0040
0040
0040
0040
0040
FF80
ENDCHAR
STARTCHAR 0054
ENCODING 84
SWIDTH 464 0
DWIDTH 13 0
BBX 11 20 1 0
BITMAP
FFE0
0400
0400
0400
0400
0400
0400
0400
0400
0400
0400
0400
0400
0400
0400
0400
0400
0400
0400
0400
ENDCHAR
STARTCHAR 0055
ENCODING 85
SWIDTH 535 0
DWIDTH 15 0
BBX 11 20 2 0
BITMAP
8020
8020
8020
8020
8020
8020
8020
8020
8020
8020
8020
8020
8020
8020
8020
8020
8020
8020
8020
7FC0
ENDCHAR
STARTCHAR 0056
ENCODING 86
SWIDTH 500 0
DWIDTH 14 0
BBX 13 20 1 0
BITMAP
8008
8008
8010
4010
4010
4020
2020
2020
2020
2040
1040
1040
1080
0880
0880
0900
0500
0500
0600
0200
ENDCHAR
STARTCHAR 0057
ENCODING 87
SWIDTH 785 0
DWIDTH 22 0
BBX 20 20 1 0
BITMAP
800010
806010
806020
806020
40A020
409020
409040
409040
211040
211040
210880
110880
110880
120880
120900
0A0500
0A0500
0C0500
0C0600
040200
ENDCHAR
STARTCHAR 0058
ENCODING 88
SWIDTH 535 0
DWIDTH 15 0
BBX 14 20 1 0
BITMAP
4008
2010
2020
1020
1040
0840
0480
0500
0300
0300
0300
0480
0880
0840
1020
1020
2010
4008
4008
8004
ENDCHAR
STARTCHAR 0059
ENCODING 89
SWIDTH 535 0
DWIDTH 15 0
BBX 15 20 0 0
BITMAP
8002
4004
4008
2008
1010
1010
0820
0440
0440
0280
0280
0100
0100
0100
0100
0100
0100
0100
0100
0100
ENDCHAR
STARTCHAR 005A
ENCODING 90
SWIDTH 500 0
DWIDTH 14 0
BBX 11 20 1 0
BITMAP
FFE0
0060
0040
0080
0080
0100
0100
0200
0200
0400
0400
0800
1000
1000
2000
2000
4000
4000
8000
FFE0
ENDCHAR
STARTCHAR 005B
ENCODING 91
SWIDTH 321 0
DWIDTH 9 0
BBX 6 26 2 -6
BITMAP
FC
80
80
80
80
80
80
80
80
80
80
80
80
80
80
80
80
80
80
80
80
80
80
80
80
FC
ENDCHAR
STARTCHAR 005C
ENCODING 92
SWIDTH 392 0
DWIDTH 11 0
BBX 11 20 0 0
BITMAP
8000
8000
4000
4000
2000
1000
1000
0800
0800
0400
0400
0200
0200
0100
0100
0080
0080
0040
0040
0020
ENDCHAR
STARTCHAR 005D
ENCODING 93
SWIDTH 285 0
DWIDTH 8 0
BBX 6 26 1 -6
BITMAP
FC
04
04
04
04
04
04
04
04
04
04
04
04
04
04
04
04
04
04
04
04
04
04
04
04
FC
ENDCHAR
STARTCHAR 005E
ENCODING 94
SWIDTH 321 0
DWIDTH 9 0
BBX 9 8 0 12
BITMAP
0800
1800
1400
2200
4200
4100
8100
8080
ENDCHAR
STARTCHAR 005F
ENCODING 95
SWIDTH 714 0
DWIDTH 20 0
BBX 17 1 1 -3
BITMAP
FFFF80
ENDCHAR
STARTCHAR 0060
ENCODING 96
SWIDTH 285 0
DWIDTH 8 0
BBX 3 4 2 16
BITMAP
80
40
40
20
ENDCHAR
STARTCHAR 0061
ENCODING 97
SWIDTH 464 0
DWIDTH 13 0
BBX 9 14 2 0
BITMAP
FF00
0080
0080
0080
0080
7F80
8080
8080
8080
8080
8080
8080
8080
7F80
ENDCHAR
STARTCHAR 0062
ENCODING 98
SWIDTH 464 0
DWIDTH 13 0
BBX 9 20 2 0
BITMAP
8000
8000
8000
8000
8000
8000
FF00
8080
8080
8080
8080
8080
8080
8080
8080
8080
8080
8080
8080
FF00
ENDCHAR
STARTCHAR 0063
ENCODING 99
SWIDTH 392 0
DWIDTH 11 0
BBX 8 14 2 0
BITMAP
7F
80
80
80
80
80
80
80
80
80
80
80
80
7F
ENDCHAR
STARTCHAR 0064
ENCODING 100
SWIDTH 464 0
DWIDTH 13 0
BBX 9 20 2 0
BITMAP
0080
0080
0080
0080
0080
0080
7F80
8080
8080
8080
8080
8080
8080
8080
8080
8080
8080
8080
8080
7F80
ENDCHAR
STARTCHAR 0065
ENCODING 101
SWIDTH 464 0
DWIDTH 13 0
BBX 9 14 2 0
BITMAP
7F00
8080
8080
8080
8080
FF80
8000
8000
8000
8000
8000
8000
8000
7F80
ENDCHAR
STARTCHAR 0066
ENCODING 102
SWIDTH 250 0
DWIDTH 7 0
BBX 5 20 2 0
BITMAP
78
80
80
80
80
80
F8
80
80
80
80
80
80
80
80
80
80
80
80
80
ENDCHAR
STARTCHAR 0067
ENCODING 103
SWIDTH 464 0
DWIDTH 13 0
BBX 9 20 2 -6
BITMAP
7F80
8080
8080
8080
8080
8080
8080
8080
8080
8080
8080
8080
8080
7F80
0080
0080
0080
0080
0080
FF00
ENDCHAR
STARTCHAR 0068
ENCODING 104
SWIDTH 464 0
DWIDTH 13 0
BBX 9 20 2 0
BITMAP
8000
8000
8000
8000
8000
8000
FF00
8080
8080
8080
8080
8080
8080
8080
8080
8080
8080
8080
8080
8080
ENDCHAR
STARTCHAR 0069
ENCODING 105
SWIDTH 178 0
DWIDTH 5 0
BBX 1 17 2 0
BITMAP
80
00
00
80
80
80
80
80
80
80
80
80
80
80
80
80
80
ENDCHAR
STARTCHAR 006A
ENCODING 106
SWIDTH 178 0
DWIDTH 5 0
BBX 2 23 1 -7
BITMAP
40
00
00
40
40
40
40
40
40
40
40
40
40
40
40
40
40
40
40
40
40
80
80
ENDCHAR
STARTCHAR 006B
ENCODING 107
SWIDTH 428 0
DWIDTH 12 0
BBX 9 20 2 0
BITMAP
8000
8000
8000
8000
8000
8000
8000
8100
8200
8200
8400
8400
F800
8400
8400
8200
8200
8100
8100
8080
ENDCHAR
STARTCHAR 006C
ENCODING 108
SWIDTH 178 0
DWIDTH 5 0
BBX 1 20 2 0
BITMAP
80
80
80
80
80
80
80
80
80
80
80
80
80
80
80
80
80
80
80
80
ENDCHAR
STARTCHAR 006D
ENCODING 109
SWIDTH 678 0
DWIDTH 19 0
BBX 15 14 2 0
BITMAP
FEFC
8102
8102
8102
8102
8102
8102
8102
8102
8102
8102
8102
8102
8102
ENDCHAR
STARTCHAR 006E
ENCODING 110
SWIDTH 464 0
DWIDTH 13 0
BBX 9 14 2 0
BITMAP
FF00
8080
8080
8080
8080
8080
8080
8080
8080
8080
8080
8080
8080
8080
ENDCHAR
STARTCHAR 006F
ENCODING 111
SWIDTH 464 0
DWIDTH 13 0
BBX 9 14 2 0
BITMAP
7F00
8080
8080
8080
8080
8080
8080
8080
8080
8080
8080
8080
8080
7F00
ENDCHAR
STARTCHAR 0070
ENCODING 112
SWIDTH 464 0
DWIDTH 13 0
BBX 9 20 2 -6
BITMAP
FF00
8080
8080
8080
8080
8080
8080
8080
8080
8080
8080
8080
8080
FF00
8000
8000
8000
8000
8000
8000
ENDCHAR
STARTCHAR 0071
ENCODING 113
SWIDTH 464 0
DWIDTH 13 0
BBX 9 20 2 -6
BITMAP
7F80
8080
8080
8080
8080
8080
8080
8080
8080
8080
8080
8080
8080
7F80
0080
0080
0080
0080
0080
0080
ENDCHAR
STARTCHAR 0072
ENCODING 114
SWIDTH 285 0
DWIDTH 8 0
BBX 6 14 2 0
BITMAP
FC
80
80
80
80
80
80
80
80
80
80
80
80
80
ENDCHAR
STARTCHAR 0073
ENCODING 115
SWIDTH 392 0
DWIDTH 11 0
BBX 8 14 2 0
BITMAP
7F
80
80
80
40
20
18
0C
02
01
01
01
01
FE
ENDCHAR
STARTCHAR 0074
ENCODING 116
SWIDTH 285 0
DWIDTH 8 0
BBX 5 17 2 1
BITMAP
80
80
80
F8
80
80
80
80
80
80
80
80
80
80
80
80
78
ENDCHAR
STARTCHAR 0075
ENCODING 117
SWIDTH 464 0
DWIDTH 13 0
BBX 9 14 2 0
BITMAP
8080
8080
8080
8080
8080
8080
8080
8080
8080
8080
8080
8080
8080
7F80
ENDCHAR
STARTCHAR 0076
ENCODING 118
SWIDTH 392 0
DWIDTH 11 0
BBX 10 14 1 0
BITMAP
8040
8040
4080
4080
4080
4100
2100
2100
2200
1200
1200
1400
0C00
0C00
ENDCHAR
STARTCHAR 0077
ENCODING 119
SWIDTH 607 0
DWIDTH 17 0
BBX 15 14 1 0
BITMAP
8102
8302
8304
4284
4284
4488
4488
2448
2448
2450
2850
1850
1830
0820
ENDCHAR
STARTCHAR 0078
ENCODING 120
SWIDTH 428 0
DWIDTH 12 0
BBX 10 14 1 0
BITMAP
8040
4080
4100
2100
1200
1400
0C00
0C00
1400
1200
2100
4100
4080
8040
ENDCHAR
STARTCHAR 0079
ENCODING 121
SWIDTH 392 0
DWIDTH 11 0
BBX 10 20 1 -6
BITMAP
8040
8040
4080
4080
4080
4100
2100
2100
2200
1200
1200
1400
0C00
0C00
0800
0800
0800
1000
1000
1000
ENDCHAR
STARTCHAR 007A
ENCODING 122
SWIDTH 392 0
DWIDTH 11 0
BBX 9 14 1 0
BITMAP
FF80
0100
0100
0200
0400
0400
0800
0800
1000
2000
2000
4000
8000
FF80
ENDCHAR
STARTCHAR 007B
ENCODING 123
SWIDTH 357 0
DWIDTH 10 0
BBX 8 26 1 -6
BITMAP
0F
10
20
20
20
20
20
20
20
20
20
20
C0
60
20
20
20
20
20
20
20
20
20
20
10
0F
ENDCHAR
STARTCHAR 007C
ENCODING 124
SWIDTH 178 0
DWIDTH 5 0
BBX 1 26 2 -6
BITMAP
80
80
80
80
80
80
80
80
80
80
80
80
80
80
80
80
80
80
80
80
80
80
80
80
80
80
ENDCHAR
STARTCHAR 007D
ENCODING 125
SWIDTH 357 0
DWIDTH 10 0
BBX 8 26 1 -6
BITMAP
F0
08
04
04
04
04
04
04
04
04
04
04
03
06
04
04
04
04
04
04
04
04
04
04
08
F0
ENDCHAR
STARTCHAR 007E
ENCODING 126
SWIDTH 464 0
DWIDTH 13 0
BBX 11 4 1 12
BITMAP
7020
C820
8620
81C0
ENDCHAR
STARTCHAR 00A0
ENCODING 160
SWIDTH 250 0
DWIDTH 7 0
BBX 0 0 0 0
BITMAP
ENDCHAR
STARTCHAR 00A1
ENCODING 161
SWIDTH 178 0
DWIDTH 5 0
BBX 1 20 2 -6
BITMAP
80
00
00
00
80
80
80
80
80
80
80
80
80
80
80
80
80
80
80
80
ENDCHAR
STARTCHAR 00A2
ENCODING 162
SWIDTH 357 0
DWIDTH 10 0
BBX 8 20 1 0
BITMAP
08
08
08
7F
80
80
80
80
80
80
80
80
80
80
80
80
7F
08
08
08
ENDCHAR
STARTCHAR 00A3
ENCODING 163
SWIDTH 464 0
DWIDTH 13 0
BBX 11 20 1 0
BITMAP
3E00
4000
4000
4000
4000
4000
4000
4000
4000
4000
FE00
4000
4000
4000
4000
4000
4000
4000
4000
7FE0
ENDCHAR
STARTCHAR 00A4
ENCODING 164
SWIDTH 464 0
DWIDTH 13 0
BBX 11 18 1 1
BITMAP
8020
8020
8060
7FC0
4040
4040
4040
4040
4040
4040
4040
4040
4040
4040
4040
7FC0
8060
8020
ENDCHAR
STARTCHAR 00A5
ENCODING 165
SWIDTH 535 0
DWIDTH 15 0
BBX 15 20 0 0
BITMAP
8002
4004
4008
2008
1010
1010
0820
0440
0440
0280
0280
0100
0100
07C0
0100
0100
0100
0100
0100
0100
ENDCHAR
STARTCHAR 00A7
ENCODING 167
SWIDTH 392 0
DWIDTH 11 0
BBX 8 26 2 -6
BITMAP
7F
80
80
80
80
C0
B0
88
84
82
81
81
81
81
81
41
21
11
0D
03
01
01
01
01
01
FE
ENDCHAR
STARTCHAR 00A8
ENCODING 168
SWIDTH 285 0
DWIDTH 8 0
BBX 4 1 2 17
BITMAP
90
ENDCHAR
STARTCHAR 00A9
ENCODING 169
SWIDTH 642 0
DWIDTH 18 0
BBX 14 20 2 0
BITMAP
7FF8
8004
8004
8FE4
9004
9004
9004
9004
9004
9004
9004
9004
9004
9004
9004
9004
9004
9FE4
8004
7FF8
ENDCHAR
STARTCHAR 00AA
ENCODING 170
SWIDTH 464 0
DWIDTH 13 0
BBX 9 20 2 0
BITMAP
FF00
0080
0080
0080
0080
0080
7F80
8080
8080
8080
8080
8080
8080
8080
7F80
0000
0000
0000
0000
FF80
ENDCHAR
STARTCHAR 00AB
ENCODING 171
SWIDTH 535 0
DWIDTH 15 0
BBX 13 11 1 3
BITMAP
0208
0410
0820
30C0
4100
8200
4100
2080
1040
0820
0618
ENDCHAR
STARTCHAR 00AC
ENCODING 172
SWIDTH 464 0
DWIDTH 13 0
BBX 10 9 1 0
BITMAP
FFC0
0040
0040
0040
0040
0040
0040
0040
0040
ENDCHAR
STARTCHAR 00AE
ENCODING 174
SWIDTH 642 0
DWIDTH 18 0
BBX 14 20 2 0
BITMAP
7FF8
8004
8004
9FE4
9024
9024
9024
9024
9024
9FC4
9084
9084
9044
9044
9024
9024
9014
8004
8004
7FF8
ENDCHAR
STARTCHAR 00AF
ENCODING 175
SWIDTH 357 0
DWIDTH 10 0
BBX 5 1 2 17
BITMAP
F8
ENDCHAR
STARTCHAR 00B0
ENCODING 176
SWIDTH 321 0
DWIDTH 9 0
BBX 5 10 2 10
BITMAP
70
88
88
88
88
88
88
88
88
70
ENDCHAR
STARTCHAR 00B1
ENCODING 177
SWIDTH 464 0
DWIDTH 13 0
BBX 11 14 1 0
BITMAP
0400
0400
0400
0400
0400
FFE0
0400
0400
0400
0400
0400
0000
0000
FFE0
ENDCHAR
STARTCHAR 00B4
ENCODING 180
SWIDTH 285 0
DWIDTH 8 0
BBX 4 4 2 16
BITMAP
10
20
40
80
ENDCHAR
STARTCHAR 00B5
ENCODING 181
SWIDTH 464 0
DWIDTH 13 0
BBX 9 20 2 -6
BITMAP
8080
8080
8080
8080
8080
8080
8080
8080
8080
8080
8080
8080
8080
FF80
8000
8000
8000
8000
8000
8000
ENDCHAR
STARTCHAR 00B6
ENCODING 182
SWIDTH 535 0
DWIDTH 15 0
BBX 11 20 2 0
BITMAP
3FE0
7FE0
FFE0
FFE0
FFE0
FFE0
FFE0
FFE0
FFE0
7FE0
0020
0020
0020
0020
0020
0020
0020
0020
0020
0020
ENDCHAR
STARTCHAR 00B7
ENCODING 183
SWIDTH 178 0
DWIDTH 5 0
BBX 1 1 2 7
BITMAP
80
ENDCHAR
STARTCHAR 00B8
ENCODING 184
SWIDTH 321 0
DWIDTH 9 0
BBX 5 6 2 -5
BITMAP
40
70
08
08
08
F0
ENDCHAR
STARTCHAR 00BA
ENCODING 186
SWIDTH 464 0
DWIDTH 13 0
BBX 9 20 2 0
BITMAP
7F00
8080
8080
8080
8080
8080
8080
8080
8080
8080
8080
8080
8080
8080
7F00
0000
0000
0000
0000
FF80
ENDCHAR
STARTCHAR 00BB
ENCODING 187
SWIDTH 535 0
DWIDTH 15 0
BBX 13 11 1 3
BITMAP
8200
4100
2080
1860
0410
0208
0410
0820
1040
2080
C300
ENDCHAR
STARTCHAR 00BF
ENCODING 191
SWIDTH 392 0
DWIDTH 11 0
BBX 9 20 1 -6
BITMAP
0400
0000
0000
0000
0400
0400
0400
0400
0400
0400
0400
0800
1000
2000
4000
8000
8000
8000
8000
7F80
ENDCHAR
STARTCHAR 00C0
ENCODING 192
SWIDTH 500 0
DWIDTH 14 0
BBX 13 22 1 0
BITMAP
0F80
0000
0000
0600
0500
0500
0900
0900
0880
0880
1080
1040
1040
2040
2020
3FE0
4020
4010
4010
8010
8008
8008
ENDCHAR
STARTCHAR 00C1
ENCODING 193
SWIDTH 500 0
DWIDTH 14 0
BBX 13 23 1 1
BITMAP
0840
0840
0780
0000
0300
0500
0500
0500
0880
0880
0880
1040
1040
1040
2020
2020
3FE0
4020
4010
4010
8010
8008
8008
ENDCHAR
STARTCHAR 00C2
ENCODING 194
SWIDTH 500 0
DWIDTH 14 0
BBX 13 22 1 0
BITMAP
0880
0000
0000
0600
0500
0500
0900
0880
0880
0880
1040
1040
1040
2040
2020
3FE0
4020
4010
4010
8010
8008
8008
ENDCHAR
STARTCHAR 00C3
ENCODING 195
SWIDTH 392 0
DWIDTH 11 0
BBX 9 20 2 0
BITMAP
0100
0200
0400
0000
0000
0000
7F80
8000
8000
8000
8000
8000
8000
8000
8000
8000
8000
8000
8000
7F80
ENDCHAR
STARTCHAR 00C4
ENCODING 196
SWIDTH 500 0
DWIDTH 14 0
BBX 13 24 1 0
BITMAP
0800
0400
0200
0000
0600
0500
0500
0500
0900
0880
0880
1080
1040
1040
2040
2020
2020
3FE0
4020
4010
4010
8010
8008
8008
ENDCHAR
STARTCHAR 00C5
ENCODING 197
SWIDTH 500 0
DWIDTH 14 0
BBX 13 23 1 0
BITMAP
1C20
2220
21C0
0000
0600
0500
0500
0900
0880
0880
0880
1080
1040
1040
2040
2020
3FE0
4020
4010
4010
8010
8008
8008
ENDCHAR
STARTCHAR 00C6
ENCODING 198
SWIDTH 785 0
DWIDTH 22 0
BBX 22 20 -1 0
BITMAP
001FFC
002800
002800
004800
004800
008800
010800
010800
020800
020FF0
040800
080800
080800
1FF800
100800
200800
200800
400800
800800
800FFC
ENDCHAR
STARTCHAR 00C7
ENCODING 199
SWIDTH 500 0
DWIDTH 14 0
BBX 11 24 2 0
BITMAP
0200
0500
0880
0000
7FE0
8000
8000
8000
8000
8000
8000
8000
8000
8000
8000
8000
8000
8000
8000
8000
8000
8000
8000
7FE0
ENDCHAR
STARTCHAR 00C8
ENCODING 200
SWIDTH 464 0
DWIDTH 13 0
BBX 10 24 2 0
BITMAP
1000
0800
0400
0000
FFC0
8000
8000
8000
8000
8000
8000
8000
8000
FF00
8000
8000
8000
8000
8000
8000
8000
8000
8000
FFC0
ENDCHAR
STARTCHAR 00C9
ENCODING 201
SWIDTH 464 0
DWIDTH 13 0
BBX 10 23 2 1
BITMAP
0600
0000
0000
FF80
8000
8000
8000
8000
8000
8000
8000
8000
FF00
8000
8000
8000
8000
8000
8000
8000
8000
8000
FFC0
ENDCHAR
STARTCHAR 00CA
ENCODING 202
SWIDTH 464 0
DWIDTH 13 0
BBX 11 24 2 0
BITMAP
0400
0A00
1100
0000
FFC0
8000
8000
8000
8000
8000
8000
8000
8000
FF80
8000
8000
8000
8000
8000
8000
8000
8000
8000
FFE0
ENDCHAR
STARTCHAR 00CB
ENCODING 203
SWIDTH 464 0
DWIDTH 13 0
BBX 11 22 2 0
BITMAP
0800
0000
FFE0
8000
8000
8000
8000
8000
8000
8000
8000
FF80
8000
8000
8000
8000
8000
8000
8000
8000
8000
FFE0
ENDCHAR
STARTCHAR 00CC
ENCODING 204
SWIDTH 214 0
DWIDTH 6 0
BBX 3 23 1 1
BITMAP
80
40
00
20
20
20
20
20
20
20
20
20
20
20
20
20
20
20
20
20
20
20
20
ENDCHAR
STARTCHAR 00CD
ENCODING 205
SWIDTH 214 0
DWIDTH 6 0
BBX 3 23 2 1
BITMAP
20
40
00
80
80
80
80
80
80
80
80
80
80
80
80
80
80
80
80
80
80
80
80
ENDCHAR
STARTCHAR 00CE
ENCODING 206
SWIDTH 214 0
DWIDTH 6 0
BBX 4 23 1 1
BITMAP
60
90
00
20
20
20
20
20
20
20
20
20
20
20
20
20
20
20
20
20
20
20
20
ENDCHAR
STARTCHAR 00CF
ENCODING 207
SWIDTH 214 0
DWIDTH 6 0
BBX 4 22 1 0
BITMAP
90
00
00
40
40
40
40
40
40
40
40
40
40
40
40
40
40
40
40
40
40
40
ENDCHAR
STARTCHAR 00D1
ENCODING 209
SWIDTH 571 0
DWIDTH 16 0
BBX 11 23 2 0
BITMAP
1C20
2220
21C0
0000
C020
C020
A020
A020
9020
9020
8820
8820
8820
8420
8420
8220
8220
8120
8120
80A0
80A0
8060
8020
ENDCHAR
STARTCHAR 00D2
ENCODING 210
SWIDTH 535 0
DWIDTH 15 0
BBX 11 24 2 0
BITMAP
1000
0800
0400
0000
7FC0
8020
8020
8020
8020
8020
8020
8020
8020
8020
8020
8020
8020
8020
8020
8020
8020
8020
8020
7FC0
ENDCHAR
STARTCHAR 00D3
ENCODING 211
SWIDTH 535 0
DWIDTH 15 0
BBX 11 24 2 0
BITMAP
0100
0200
0400
0000
7FC0
8020
8020
8020
8020
8020
8020
8020
8020
8020
8020
8020
8020
8020
8020
8020
8020
8020
8020
7FC0
ENDCHAR
STARTCHAR 00D4
ENCODING 212
SWIDTH 535 0
DWIDTH 15 0
BBX 11 23 2 1
BITMAP
0E00
0100
0000
7FC0
8020
8020
8020
8020
8020
8020
8020
8020
8020
8020
8020
8020
8020
8020
8020
8020
8020
8020
7FC0
ENDCHAR
STARTCHAR 00D5
ENCODING 213
SWIDTH 535 0
DWIDTH 15 0
BBX 11 23 2 0
BITMAP
3840
4440
4380
7FC0
8060
8060
8060
8060
8060
8060
8060
8060
8060
8060
8060
8060
8060
8060
8060
8060
8060
8060
7FC0
ENDCHAR
STARTCHAR 00D6
ENCODING 214
SWIDTH 535 0
DWIDTH 15 0
BBX 11 22 2 0
BITMAP
0900
0000
7FC0
8020
8020
8020
8020
8020
8020
8020
8020
8020
8020
8020
8020
8020
8020
8020
8020
8020
8020
7FC0
ENDCHAR
STARTCHAR 00D8
ENCODING 216
SWIDTH 535 0
DWIDTH 15 0
BBX 15 20 0 0
BITMAP
1FF2
200C
200C
2008
2018
2028
2048
2048
2088
2108
2108
2208
2408
2808
2808
3008
2008
6008
A008
9FF0
ENDCHAR
STARTCHAR 00D9
ENCODING 217
SWIDTH 535 0
DWIDTH 15 0
BBX 11 22 2 2
BITMAP
0400
0000
8020
8020
8020
8020
8020
8020
8020
8020
8020
8020
8020
8020
8020
8020
8020
8020
8020
8020
8020
7FC0
ENDCHAR
STARTCHAR 00DA
ENCODING 218
SWIDTH 535 0
DWIDTH 15 0
BBX 11 23 2 1
BITMAP
0100
0200
0000
8020
8020
8020
8020
8020
8020
8020
8020
8020
8020
8020
8020
8020
8020
8020
8020
8020
8020
8020
7FC0
ENDCHAR
STARTCHAR 00DB
ENCODING 219
SWIDTH 535 0
DWIDTH 15 0
BBX 11 23 2 1
BITMAP
0600
0900
0000
8020
8020
8020
8020
8020
8020
8020
8020
8020
8020
8020
8020
8020
8020
8020
8020
8020
8020
8020
7FC0
ENDCHAR
STARTCHAR 00DC
ENCODING 220
SWIDTH 535 0
DWIDTH 15 0
BBX 11 22 2 0
BITMAP
0900
0000
0000
8020
8020
8020
8020
8020
8020
8020
8020
8020
8020
8020
8020
8020
8020
8020
8020
8020
8020
7FC0
ENDCHAR
STARTCHAR 00DD
ENCODING 221
SWIDTH 535 0
DWIDTH 15 0
BBX 15 23 0 1
BITMAP
0040
0180
0000
8002
8004
4008
2008
2010
1030
1020
0840
0CC0
0480
0380
0300
0300
0300
0300
0300
0300
0300
0300
0300
ENDCHAR
STARTCHAR 00DF
ENCODING 223
SWIDTH 464 0
DWIDTH 13 0
BBX 9 20 2 0
BITMAP
7F00
8080
8080
8080
8080
8100
8200
8400
8800
8800
8800
8400
8200
8100
8080
8080
8080
8080
8080
8F00
ENDCHAR
STARTCHAR 00E0
ENCODING 224
SWIDTH 464 0
DWIDTH 13 0
BBX 9 18 2 0
BITMAP
3E00
0000
0000
0000
FF00
0080
0080
0080
0080
7F80
8080
8080
8080
8080
8080
8080
8080
7F80
ENDCHAR
STARTCHAR 00E1
ENCODING 225
SWIDTH 464 0
DWIDTH 13 0
BBX 9 20 2 0
BITMAP
4000
4200
4200
3C00
0000
0000
FF00
0080
0080
0080
0080
7F80
8080
8080
8080
8080
8080
8080
8080
7F80
ENDCHAR
STARTCHAR 00E2
ENCODING 226
SWIDTH 464 0
DWIDTH 13 0
BBX 9 18 2 0
BITMAP
2400
0000
0000
0000
FF00
0080
0080
0080
0080
7F80
8080
8080
8080
8080
8080
8080
8080
7F80
ENDCHAR
STARTCHAR 00E3
ENCODING 227
SWIDTH 500 0
DWIDTH 14 0
BBX 13 24 1 0
BITMAP
0080
0100
0200
0000
0200
0600
0500
0900
0900
0880
0880
1080
1040
1040
2040
2040
2020
3FE0
4020
4010
4010
8010
8008
8008
ENDCHAR
STARTCHAR 00E4
ENCODING 228
SWIDTH 464 0
DWIDTH 13 0
BBX 9 20 2 0
BITMAP
2000
1000
0800
0000
0000
0000
FF00
0080
0080
0080
0080
7F80
8080
8080
8080
8080
8080
8080
8080
7F80
ENDCHAR
STARTCHAR 00E5
ENCODING 229
SWIDTH 464 0
DWIDTH 13 0
BBX 9 20 2 0
BITMAP
6080
9080
8880
8700
0000
0000
FF00
0080
0080
0080
0080
7F80
8080
8080
8080
8080
8080
8080
8080
7F80
ENDCHAR
STARTCHAR 00E6
ENCODING 230
SWIDTH 714 0
DWIDTH 20 0
BBX 16 14 2 0
BITMAP
FF7E
0081
0081
0081
0081
7FFF
8080
8080
8080
8080
8080
8080
8080
7F7F
ENDCHAR
STARTCHAR 00E7
ENCODING 231
SWIDTH 392 0
DWIDTH 11 0
BBX 8 20 2 0
BITMAP
08
14
24
00
00
00
7F
80
80
80
80
80
80
80
80
80
80
80
80
7F
ENDCHAR
STARTCHAR 00E8
ENCODING 232
SWIDTH 464 0
DWIDTH 13 0
BBX 9 20 2 0
BITMAP
2000
1000
0800
0000
0000
0000
7F00
8080
8080
8080
8080
FF80
8000
8000
8000
8000
8000
8000
8000
7F80
ENDCHAR
STARTCHAR 00E9
ENCODING 233
SWIDTH 464 0
DWIDTH 13 0
BBX 9 20 2 0
BITMAP
0200
0400
0800
0000
0000
0000
7F00
8080
8080
8080
8080
FF80
8000
8000
8000
8000
8000
8000
8000
7F80
ENDCHAR
STARTCHAR 00EA
ENCODING 234
SWIDTH 464 0
DWIDTH 13 0
BBX 8 20 2 0
BITMAP
08
14
24
02
00
00
7E
81
81
81
81
FF
80
80
80
80
80
80
80
7F
ENDCHAR
STARTCHAR 00EB
ENCODING 235
SWIDTH 464 0
DWIDTH 13 0
BBX 9 18 2 0
BITMAP
2200
0000
0000
0000
7F00
8080
8080
8080
8080
FF80
8000
8000
8000
8000
8000
8000
8000
7F80
ENDCHAR
STARTCHAR 00EC
ENCODING 236
SWIDTH 178 0
DWIDTH 5 0
BBX 3 19 0 1
BITMAP
80
40
20
00
00
20
20
20
20
20
20
20
20
20
20
20
20
20
20
ENDCHAR
STARTCHAR 00ED
ENCODING 237
SWIDTH 178 0
DWIDTH 5 0
BBX 3 20 2 0
BITMAP
20
40
80
00
00
00
80
80
80
80
80
80
80
80
80
80
80
80
80
80
ENDCHAR
STARTCHAR 00EE
ENCODING 238
SWIDTH 178 0
DWIDTH 5 0
BBX 6 20 0 0
BITMAP
10
28
48
84
00
00
10
10
10
10
10
10
10
10
10
10
10
10
10
10
ENDCHAR
STARTCHAR 00EF
ENCODING 239
SWIDTH 178 0
DWIDTH 5 0
BBX 4 18 1 0
BITMAP
90
00
00
00
40
40
40
40
40
40
40
40
40
40
40
40
40
40
ENDCHAR
STARTCHAR 00F0
ENCODING 240
SWIDTH 500 0
DWIDTH 14 0
BBX 10 20 2 0
BITMAP
4000
2400
1800
1800
2400
0200
0100
0080
0040
7FC0
8040
8040
8040
8040
8040
8040
8040
8040
8040
7F80
ENDCHAR
STARTCHAR 00F1
ENCODING 241
SWIDTH 464 0
DWIDTH 13 0
BBX 9 20 2 0
BITMAP
6080
9080
8880
8700
0000
0000
FF00
8080
8080
8080
8080
8080
8080
8080
8080
8080
8080
8080
8080
8080
ENDCHAR
STARTCHAR 00F2
ENCODING 242
SWIDTH 464 0
DWIDTH 13 0
BBX 9 20 2 0
BITMAP
2000
1000
0800
0400
0000
0000
7F00
8080
8080
8080
8080
8080
8080
8080
8080
8080
8080
8080
8080
7F00
ENDCHAR
STARTCHAR 00F3
ENCODING 243
SWIDTH 464 0
DWIDTH 13 0
BBX 9 20 2 0
BITMAP
0200
0400
0800
0000
0000
0000
7F00
8080
8080
8080
8080
8080
8080
8080
8080
8080
8080
8080
8080
7F00
ENDCHAR
STARTCHAR 00F4
ENCODING 244
SWIDTH 464 0
DWIDTH 13 0
BBX 9 19 2 1
BITMAP
0C00
1200
2100
0000
0000
7F00
8080
8080
8080
8080
8080
8080
8080
8080
8080
8080
8080
8080
7F00
ENDCHAR
STARTCHAR 00F5
ENCODING 245
SWIDTH 464 0
DWIDTH 13 0
BBX 9 20 2 0
BITMAP
6080
9080
8880
8700
0000
0000
7F00
8080
8080
8080
8080
8080
8080
8080
8080
8080
8080
8080
8080
7F00
ENDCHAR
STARTCHAR 00F6
ENCODING 246
SWIDTH 464 0
DWIDTH 13 0
BBX 9 18 2 0
BITMAP
1200
0000
0000
0000
7F00
8080
8080
8080
8080
8080
8080
8080
8080
8080
8080
8080
8080
7F00
ENDCHAR
STARTCHAR 00F7
ENCODING 247
SWIDTH 464 0
DWIDTH 13 0
BBX 10 10 2 3
BITMAP
0800
0000
0000
0000
FFC0
0000
0000
0000
0000
0800
ENDCHAR
STARTCHAR 00F8
ENCODING 248
SWIDTH 464 0
DWIDTH 13 0
BBX 11 14 1 0
BITMAP
3FA0
4040
4040
41C0
4140
4240
4440
4840
4840
5040
6040
4040
4040
BF80
ENDCHAR
STARTCHAR 00F9
ENCODING 249
SWIDTH 464 0
DWIDTH 13 0
BBX 9 20 2 0
BITMAP
2000
1000
0800
0000
0000
0000
8080
8080
8080
8080
8080
8080
8080
8080
8080
8080
8080
8080
8080
7F80
ENDCHAR
STARTCHAR 00FA
ENCODING 250
SWIDTH 464 0
DWIDTH 13 0
BBX 9 20 2 0
BITMAP
0200
0400
0800
0000
0000
0000
8080
8080
8080
8080
8080
8080
8080
8080
8080
8080
8080
8080
8080
7F80
ENDCHAR
STARTCHAR 00FB
ENCODING 251
SWIDTH 464 0
DWIDTH 13 0
BBX 9 19 2 1
BITMAP
0C00
1200
2100
0000
0000
8080
8080
8080
8080
8080
8080
8080
8080
8080
8080
8080
8080
8080
7F80
ENDCHAR
STARTCHAR 00FC
ENCODING 252
SWIDTH 464 0
DWIDTH 13 0
BBX 9 18 2 0
BITMAP
1200
0000
0000
0000
8080
8080
8080
8080
8080
8080
8080
8080
8080
8080
8080
8080
8080
7F80
ENDCHAR
STARTCHAR 00FD
ENCODING 253
SWIDTH 392 0
DWIDTH 11 0
BBX 10 25 1 -6
BITMAP
0C00
1000
3000
7000
0000
0000
80C0
8080
8180
8180
8300
8700
8700
8E00
9E00
9E00
BC00
BC00
FC00
3800
F800
7800
7000
3000
3000
ENDCHAR
STARTCHAR 00FF
ENCODING 255
SWIDTH 392 0
DWIDTH 11 0
BBX 10 24 1 -6
BITMAP
1200
0000
0000
0000
8040
8040
8080
4080
4080
4100
2100
2100
2200
1200
1200
1400
0C00
0C00
0800
0800
0800
0800
1000
1000
ENDCHAR
STARTCHAR 0100
ENCODING 256
SWIDTH 500 0
DWIDTH 14 0
BBX 13 26 1 -5
BITMAP
0600
0600
0A00
0900
0900
0900
1080
1080
1080
1080
2040
2040
2040
3FE0
4020
4020
4010
4010
8010
8008
8008
0030
0040
0080
0080
0078
ENDCHAR
STARTCHAR 0101
ENCODING 257
SWIDTH 464 0
DWIDTH 13 0
BBX 9 20 2 -6
BITMAP
FF00
0080
0080
0080
0080
7F80
8080
8080
8080
8080
8080
8080
8080
8080
7F80
0100
0600
0800
0800
0780
ENDCHAR
STARTCHAR 0102
ENCODING 258
SWIDTH 500 0
DWIDTH 14 0
BBX 13 23 1 1
BITMAP
0E00
0100
0000
0600
0600
0600
0900
0900
0900
1080
1080
1080
1040
2040
2040
2020
3FE0
4020
4010
4010
8010
8008
8008
ENDCHAR
STARTCHAR 0103
ENCODING 259
SWIDTH 464 0
DWIDTH 13 0
BBX 9 19 2 1
BITMAP
1800
2400
4200
0000
0000
FF00
0080
0080
0080
0080
7F80
8080
8080
8080
8080
8080
8080
8080
7F80
ENDCHAR
STARTCHAR 0104
ENCODING 260
SWIDTH 500 0
DWIDTH 14 0
BBX 13 24 1 0
BITMAP
0F80
1040
1040
0F80
0000
0600
0500
0500
0900
0880
0880
1080
1040
1040
1040
2040
2020
3FE0
4020
4010
4010
8010
8008
8008
ENDCHAR
STARTCHAR 0105
ENCODING 261
SWIDTH 464 0
DWIDTH 13 0
BBX 9 21 2 0
BITMAP
3C00
4200
4200
4200
3C00
0000
0000
FF00
0080
0080
0080
0080
7F80
8080
8080
8080
8080
8080
8080
8080
7F80
ENDCHAR
STARTCHAR 0106
ENCODING 262
SWIDTH 500 0
DWIDTH 14 0
BBX 10 24 2 0
BITMAP
1000
0900
0600
0000
7FC0
8000
8000
8000
8000
8000
8000
8000
8000
8000
8000
8000
8000
8000
8000
8000
8000
8000
8000
7FC0
ENDCHAR
STARTCHAR 0107
ENCODING 263
SWIDTH 392 0
DWIDTH 11 0
BBX 8 20 2 0
BITMAP
21
22
14
0C
00
00
7F
80
80
80
80
80
80
80
80
80
80
80
80
7F
ENDCHAR
STARTCHAR 0108
ENCODING 264
SWIDTH 500 0
DWIDTH 14 0
BBX 10 22 2 0
BITMAP
0400
0000
7FC0
8000
8000
8000
8000
8000
8000
8000
8000
8000
8000
8000
8000
8000
8000
8000
8000
8000
8000
7FC0
ENDCHAR
STARTCHAR 0109
ENCODING 265
SWIDTH 392 0
DWIDTH 11 0
BBX 8 17 2 0
BITMAP
08
00
00
7F
80
80
80
80
80
80
80
80
80
80
80
80
7F
ENDCHAR
STARTCHAR 010A
ENCODING 266
SWIDTH 535 0
DWIDTH 15 0
BBX 11 24 2 0
BITMAP
0080
0900
0600
0000
FFC0
8020
8020
8020
8020
8020
8020
8020
8020
8020
8020
8020
8020
8020
8020
8020
8020
8020
8020
FFC0
ENDCHAR
STARTCHAR 010B
ENCODING 267
SWIDTH 500 0
DWIDTH 14 0
BBX 11 24 2 0
BITMAP
0080
0100
0200
0000
7FE0
8000
8000
8000
8000
8000
8000
8000
8000
8000
8000
8000
8000
8000
8000
8000
8000
8000
8000
7FE0
ENDCHAR
STARTCHAR 010C
ENCODING 268
SWIDTH 500 0
DWIDTH 14 0
BBX 11 26 2 -6
BITMAP
7FE0
8000
8000
8000
8000
8000
8000
8000
8000
8000
8000
8000
8000
8000
8000
8000
8000
8000
8000
7FE0
0400
0700
0080
0080
0080
0F00
ENDCHAR
STARTCHAR 010D
ENCODING 269
SWIDTH 392 0
DWIDTH 11 0
BBX 8 20 2 -6
BITMAP
7F
80
80
80
80
80
80
80
80
80
80
80
80
7F
10
1C
02
02
02
3C
ENDCHAR
STARTCHAR 010E
ENCODING 270
SWIDTH 535 0
DWIDTH 15 0
BBX 11 22 2 0
BITMAP
1F00
0000
FFC0
8020
8020
8020
8020
8020
8020
8020
8020
8020
8020
8020
8020
8020
8020
8020
8020
8020
8020
FFC0
ENDCHAR
STARTCHAR 010F
ENCODING 271
SWIDTH 464 0
DWIDTH 13 0
BBX 10 20 2 0
BITMAP
0080
0080
07C0
0080
0080
0080
7F80
8080
8080
8080
8080
8080
8080
8080
8080
8080
8080
8080
8080
7F80
ENDCHAR
STARTCHAR 0111
ENCODING 273
SWIDTH 464 0
DWIDTH 13 0
BBX 9 20 2 0
BITMAP
0080
0080
3E80
0080
0080
0080
7F80
8080
8080
8080
8080
8080
8080
8080
8080
8080
8080
8080
8080
7F80
ENDCHAR
STARTCHAR 0112
ENCODING 274
SWIDTH 464 0
DWIDTH 13 0
BBX 10 22 2 0
BITMAP
1F00
0000
FF80
8000
8000
8000
8000
8000
8000
8000
8000
FF00
8000
8000
8000
8000
8000
8000
8000
8000
8000
FFC0
ENDCHAR
STARTCHAR 0113
ENCODING 275
SWIDTH 464 0
DWIDTH 13 0
BBX 9 18 2 0
BITMAP
3E00
0000
0000
0000
7F00
8080
8080
8080
8080
FF80
8000
8000
8000
8000
8000
8000
8000
7E00
ENDCHAR
STARTCHAR 0114
ENCODING 276
SWIDTH 464 0
DWIDTH 13 0
BBX 11 23 2 1
BITMAP
2000
2100
1F00
FFC0
8000
8000
8000
8000
8000
8000
8000
8000
FF80
8000
8000
8000
8000
8000
8000
8000
8000
8000
FFE0
ENDCHAR
STARTCHAR 0115
ENCODING 277
SWIDTH 464 0
DWIDTH 13 0
BBX 9 20 2 0
BITMAP
4000
4200
4200
3C00
0000
0000
7F00
8080
8080
8080
8080
FF80
8000
8000
8000
8000
8000
8000
8000
7F80
ENDCHAR
STARTCHAR 0116
ENCODING 278
SWIDTH 464 0
DWIDTH 13 0
BBX 11 22 2 0
BITMAP
0400
0000
FFC0
8000
8000
8000
8000
8000
8000
8000
8000
FF80
8000
8000
8000
8000
8000
8000
8000
8000
8000
FFE0
ENDCHAR
STARTCHAR 0117
ENCODING 279
SWIDTH 464 0
DWIDTH 13 0
BBX 9 17 2 0
BITMAP
0800
0000
0000
7F00
8080
8080
8080
8080
FF80
8000
8000
8000
8000
8000
8000
8000
7F80
ENDCHAR
STARTCHAR 0118
ENCODING 280
SWIDTH 464 0
DWIDTH 13 0
BBX 10 26 2 -6
BITMAP
FFC0
8000
8000
8000
8000
8000
8000
8000
8000
FF00
8000
8000
8000
8000
8000
8000
8000
8000
8000
8000
FFC0
0100
0200
0400
0400
0380
ENDCHAR
STARTCHAR 0119
ENCODING 281
SWIDTH 464 0
DWIDTH 13 0
BBX 9 20 2 -6
BITMAP
7F00
8080
8080
8080
8080
FF80
8000
8000
8000
8000
8000
8000
8000
C000
7F80
0200
0C00
1000
1000
0F80
ENDCHAR
STARTCHAR 011A
ENCODING 282
SWIDTH 464 0
DWIDTH 13 0
BBX 11 24 2 0
BITMAP
2080
1100
0E00
0000
FFC0
8000
8000
8000
8000
8000
8000
8000
8000
FF80
8000
8000
8000
8000
8000
8000
8000
8000
8000
FFE0
ENDCHAR
STARTCHAR 011B
ENCODING 283
SWIDTH 464 0
DWIDTH 13 0
BBX 8 19 2 1
BITMAP
22
14
08
00
00
7E
81
81
81
81
FF
80
80
80
80
80
80
80
7F
ENDCHAR
STARTCHAR 011C
ENCODING 284
SWIDTH 535 0
DWIDTH 15 0
BBX 11 23 2 1
BITMAP
0E00
0100
0000
7FE0
8000
8000
8000
8000
8000
8000
8000
8000
83E0
8020
8020
8020
8020
8020
8020
8020
8020
8020
7FC0
ENDCHAR
STARTCHAR 011D
ENCODING 285
SWIDTH 464 0
DWIDTH 13 0
BBX 9 25 2 -5
BITMAP
0C00
1200
0000
0000
0000
7F80
8080
8080
8080
8080
8080
8080
8080
8080
8080
8080
8080
8080
7F80
0080
0080
0080
0080
0080
FF00
ENDCHAR
STARTCHAR 011E
ENCODING 286
SWIDTH 535 0
DWIDTH 15 0
BBX 11 23 2 1
BITMAP
1080
1080
0F00
7FE0
8000
8000
8000
8000
8000
8000
8000
8000
83E0
8020
8020
8020
8020
8020
8020
8020
8020
8020
7FC0
ENDCHAR
STARTCHAR 011F
ENCODING 287
SWIDTH 464 0
DWIDTH 13 0
BBX 9 26 2 -6
BITMAP
4100
4200
4200
3E00
0000
0000
7F80
8080
8080
8080
8080
8080
8080
8080
8080
8080
8080
8080
8080
7F80
0080
0080
0080
0080
0080
FF00
ENDCHAR
STARTCHAR 0120
ENCODING 288
SWIDTH 535 0
DWIDTH 15 0
BBX 11 22 2 0
BITMAP
0400
0000
7FE0
8000
8000
8000
8000
8000
8000
8000
8000
87E0
8020
8020
8020
8020
8020
8020
8020
8020
8020
7FC0
ENDCHAR
STARTCHAR 0121
ENCODING 289
SWIDTH 464 0
DWIDTH 13 0
BBX 9 23 2 -6
BITMAP
0800
0000
0000
7F80
8080
8080
8080
8080
8080
8080
8080
8080
8080
8080
8080
8080
7F80
0080
0080
0080
0080
0080
FF00
ENDCHAR
STARTCHAR 0122
ENCODING 290
SWIDTH 535 0
DWIDTH 15 0
BBX 11 26 2 -6
BITMAP
7FE0
8000
8000
8000
8000
8000
8000
8000
8000
83E0
8020
8020
8020
8020
8020
8020
8020
8020
8020
7FC0
0000
0200
0200
0200
0400
0400
ENDCHAR
STARTCHAR 0123
ENCODING 291
SWIDTH 464 0
DWIDTH 13 0
BBX 9 26 2 -6
BITMAP
0200
0200
0400
0400
0400
0000
7F80
8080
8080
8080
8080
8080
8080
8080
8080
8080
8080
8080
8080
7F80
0080
0080
0080
0080
0080
FF00
ENDCHAR
STARTCHAR 0124
ENCODING 292
SWIDTH 535 0
DWIDTH 15 0
BBX 11 23 2 1
BITMAP
0E00
0100
0000
8020
8020
8020
8020
8020
8020
8020
8020
8020
FFE0
8020
8020
8020
8020
8020
8020
8020
8020
8020
8020
ENDCHAR
STARTCHAR 0125
ENCODING 293
SWIDTH 464 0
DWIDTH 13 0
BBX 9 23 2 1
BITMAP
3000
C800
0000
8000
8000
8000
8000
8000
8000
FF00
8080
8080
8080
8080
8080
8080
8080
8080
8080
8080
8080
8080
8080
ENDCHAR
STARTCHAR 0126
ENCODING 294
SWIDTH 535 0
DWIDTH 15 0
BBX 13 20 1 0
BITMAP
4010
4010
FFF8
4010
4010
4010
4010
4010
4010
7FF0
4010
4010
4010
4010
4010
4010
4010
4010
4010
4010
ENDCHAR
STARTCHAR 0127
ENCODING 295
SWIDTH 464 0
DWIDTH 13 0
BBX 11 20 0 0
BITMAP
2000
2000
FC00
2000
2000
2000
3FC0
2020
2020
2020
2020
2020
2020
2020
2020
2020
2020
2020
2020
2020
ENDCHAR
STARTCHAR 0128
ENCODING 296
SWIDTH 214 0
DWIDTH 6 0
BBX 9 23 -2 0
BITMAP
7000
8880
8700
0000
0800
0800
0800
0800
0800
0800
0800
0800
0800
0800
0800
0800
0800
0800
0800
0800
0800
0800
0800
ENDCHAR
STARTCHAR 0129
ENCODING 297
SWIDTH 178 0
DWIDTH 5 0
BBX 9 20 -2 0
BITMAP
6080
9080
8880
8700
0000
0000
0800
0800
0800
0800
0800
0800
0800
0800
0800
0800
0800
0800
0800
0800
ENDCHAR
STARTCHAR 012A
ENCODING 298
SWIDTH 214 0
DWIDTH 6 0
BBX 5 22 0 0
BITMAP
F8
00
00
20
20
20
20
20
20
20
20
20
20
20
20
20
20
20
20
20
20
20
ENDCHAR
STARTCHAR 012B
ENCODING 299
SWIDTH 178 0
DWIDTH 5 0
BBX 5 18 0 0
BITMAP
F8
00
00
00
20
20
20
20
20
20
20
20
20
20
20
20
20
20
ENDCHAR
STARTCHAR 012C
ENCODING 300
SWIDTH 214 0
DWIDTH 6 0
BBX 6 23 0 1
BITMAP
84
84
78
00
20
20
20
20
20
20
20
20
20
20
20
20
20
20
20
20
20
20
20
ENDCHAR
STARTCHAR 012D
ENCODING 301
SWIDTH 178 0
DWIDTH 5 0
BBX 6 20 0 0
BITMAP
84
84
84
78
00
00
20
20
20
20
20
20
20
20
20
20
20
20
20
20
ENDCHAR
STARTCHAR 012E
ENCODING 302
SWIDTH 214 0
DWIDTH 6 0
BBX 5 25 -1 -5
BITMAP
10
10
10
10
10
10
10
10
10
10
10
10
10
10
10
10
10
10
10
10
60
80
80
80
78
ENDCHAR
STARTCHAR 012F
ENCODING 303
SWIDTH 178 0
DWIDTH 5 0
BBX 5 23 -1 -6
BITMAP
10
00
00
10
10
10
10
10
10
10
10
10
10
10
10
10
10
10
60
40
80
40
78
ENDCHAR
STARTCHAR 0130
ENCODING 304
SWIDTH 214 0
DWIDTH 6 0
BBX 1 22 2 0
BITMAP
80
00
00
80
80
80
80
80
80
80
80
80
80
80
80
80
80
80
80
80
80
80
ENDCHAR
STARTCHAR 0131
ENCODING 305
SWIDTH 178 0
DWIDTH 5 0
BBX 1 14 2 0
BITMAP
80
80
80
80
80
80
80
80
80
80
80
80
80
80
ENDCHAR
STARTCHAR 0132
ENCODING 306
SWIDTH 464 0
DWIDTH 13 0
BBX 8 20 2 0
BITMAP
80
81
81
81
81
81
81
81
81
81
81
81
81
81
81
81
81
81
81
BF
ENDCHAR
STARTCHAR 0133
ENCODING 307
SWIDTH 392 0
DWIDTH 11 0
BBX 6 22 2 -6
BITMAP
80
00
00
80
84
84
84
84
84
84
84
84
84
84
84
84
84
04
04
04
04
04
ENDCHAR
STARTCHAR 0134
ENCODING 308
SWIDTH 321 0
DWIDTH 9 0
BBX 7 23 1 1
BITMAP
0C
12
00
04
04
04
04
04
04
04
04
04
04
04
04
04
04
04
04
04
04
04
F8
ENDCHAR
STARTCHAR 0135
ENCODING 309
SWIDTH 178 0
DWIDTH 5 0
BBX 5 26 0 -6
BITMAP
20
50
88
00
00
00
20
20
20
20
20
20
20
20
20
20
20
20
20
20
20
20
20
20
40
40
ENDCHAR
STARTCHAR 0136
ENCODING 310
SWIDTH 500 0
DWIDTH 14 0
BBX 11 26 2 -6
BITMAP
8040
8040
8080
8080
8100
8100
8200
8200
8400
F800
8400
8200
8200
8100
8100
8080
8080
8040
8040
8020
0000
0400
0400
0800
0800
1000
ENDCHAR
STARTCHAR 0137
ENCODING 311
SWIDTH 428 0
DWIDTH 12 0
BBX 9 26 2 -6
BITMAP
8000
8000
8000
8000
8000
8000
8000
8100
8200
8200
8400
8400
F800
8400
8400
8200
8200
8100
8100
8080
0000
0800
0800
1000
1000
1000
ENDCHAR
STARTCHAR 0139
ENCODING 313
SWIDTH 464 0
DWIDTH 13 0
BBX 10 23 2 1
BITMAP
2000
4000
0000
8000
8000
8000
8000
8000
8000
8000
8000
8000
8000
8000
8000
8000
8000
8000
8000
8000
8000
8000
FFC0
ENDCHAR
STARTCHAR 013A
ENCODING 314
SWIDTH 178 0
DWIDTH 5 0
BBX 3 23 2 1
BITMAP
20
40
00
80
80
80
80
80
80
80
80
80
80
80
80
80
80
80
80
80
80
80
80
ENDCHAR
STARTCHAR 013B
ENCODING 315
SWIDTH 464 0
DWIDTH 13 0
BBX 12 25 2 -6
BITMAP
8000
8000
8000
8000
8000
8000
8000
8000
8000
8000
8000
8000
8000
8000
8000
8000
8000
8000
8000
FFF0
0000
0200
0200
0200
0400
ENDCHAR
STARTCHAR 013C
ENCODING 316
SWIDTH 178 0
DWIDTH 5 0
BBX 2 26 1 -6
BITMAP
40
40
40
40
40
40
40
40
40
40
40
40
40
40
40
40
40
40
40
40
00
40
40
40
80
80
ENDCHAR
STARTCHAR 013D
ENCODING 317
SWIDTH 464 0
DWIDTH 13 0
BBX 10 20 2 0
BITMAP
8000
9000
9000
8000
8000
8000
8000
8000
8000
8000
8000
8000
8000
8000
8000
8000
8000
8000
8000
FFC0
ENDCHAR
STARTCHAR 013E
ENCODING 318
SWIDTH 178 0
DWIDTH 5 0
BBX 3 20 2 0
BITMAP
A0
A0
A0
A0
80
80
80
80
80
80
80
80
80
80
80
80
80
80
80
80
ENDCHAR
STARTCHAR 013F
ENCODING 319
SWIDTH 464 0
DWIDTH 13 0
BBX 11 20 2 0
BITMAP
8000
8000
8000
8000
8000
8000
8000
8000
8000
8800
8000
8000
8000
8000
8000
8000
8000
8000
8000
FFE0
ENDCHAR
STARTCHAR 0140
ENCODING 320
SWIDTH 214 0
DWIDTH 6 0
BBX 4 20 2 0
BITMAP
80
80
80
80
80
80
80
80
80
90
80
80
80
80
80
80
80
80
80
80
ENDCHAR
STARTCHAR 0141
ENCODING 321
SWIDTH 464 0
DWIDTH 13 0
BBX 12 19 1 1
BITMAP
4000
4000
4000
4000
4000
4100
4600
4800
5000
2000
4000
C000
4000
4000
4000
4000
4000
4000
3FF0
ENDCHAR
STARTCHAR 0142
ENCODING 322
SWIDTH 178 0
DWIDTH 5 0
BBX 4 20 1 0
BITMAP
40
40
40
40
40
40
40
50
60
40
40
C0
40
40
40
40
40
40
40
40
ENDCHAR
STARTCHAR 0143
ENCODING 323
SWIDTH 571 0
DWIDTH 16 0
BBX 11 23 2 0
BITMAP
0100
0200
0000
0000
C020
C020
A020
A020
9020
9020
8820
8820
8420
8420
8420
8220
8220
8120
8120
80A0
80A0
8060
8060
ENDCHAR
STARTCHAR 0144
ENCODING 324
SWIDTH 464 0
DWIDTH 13 0
BBX 9 20 2 0
BITMAP
0200
0400
0800
0000
0000
0000
FF00
8080
8080
8080
8080
8080
8080
8080
8080
8080
8080
8080
8080
8080
ENDCHAR
STARTCHAR 0145
ENCODING 325
SWIDTH 571 0
DWIDTH 16 0
BBX 11 24 2 -5
BITMAP
C020
C020
A020
A020
9020
9020
8820
8820
8420
8420
8420
8220
8220
8120
8120
80A0
80A0
8060
8060
0000
0200
0200
0200
0400
ENDCHAR
STARTCHAR 0146
ENCODING 326
SWIDTH 464 0
DWIDTH 13 0
BBX 9 19 2 -6
BITMAP
FF00
8080
8080
8080
8080
8080
8080
8080
8080
8080
8080
8080
8080
8080
0000
0400
0400
0400
0800
ENDCHAR
STARTCHAR 0147
ENCODING 327
SWIDTH 571 0
DWIDTH 16 0
BBX 11 23 2 0
BITMAP
1080
0B00
0400
0000
C020
C020
A020
A020
9020
9020
8820
8820
8420
8420
8420
8220
8220
8120
8120
80A0
80A0
8060
8060
ENDCHAR
STARTCHAR 0148
ENCODING 328
SWIDTH 464 0
DWIDTH 13 0
BBX 9 20 2 0
BITMAP
2100
2200
1400
0C00
0000
0000
FF00
8080
8080
8080
8080
8080
8080
8080
8080
8080
8080
8080
8080
8080
ENDCHAR
STARTCHAR 0149
ENCODING 329
SWIDTH 464 0
DWIDTH 13 0
BBX 9 20 2 0
BITMAP
8000
8000
8000
8000
0000
0000
FF00
8080
8080
8080
8080
8080
8080
8080
8080
8080
8080
8080
8080
8080
ENDCHAR
STARTCHAR 014A
ENCODING 330
SWIDTH 571 0
DWIDTH 16 0
BBX 11 23 2 -3
BITMAP
C020
C020
A020
A020
9020
9020
8820
8820
8420
8420
8420
8220
8220
8120
8120
80A0
80A0
8060
8020
0020
0040
0040
0040
ENDCHAR
STARTCHAR 014B
ENCODING 331
SWIDTH 464 0
DWIDTH 13 0
BBX 9 18 2 -4
BITMAP
FF00
8080
8080
8080
8080
8080
8080
8080
8080
8080
8080
8080
8080
8080
0080
0080
0100
0100
ENDCHAR
STARTCHAR 014C
ENCODING 332
SWIDTH 535 0
DWIDTH 15 0
BBX 11 22 2 0
BITMAP
1F00
0000
7FC0
8020
8020
8020
8020
8020
8020
8020
8020
8020
8020
8020
8020
8020
8020
8020
8020
8020
8020
7FC0
ENDCHAR
STARTCHAR 014D
ENCODING 333
SWIDTH 464 0
DWIDTH 13 0
BBX 9 18 2 0
BITMAP
3E00
0000
0000
0000
7F00
8080
8080
8080
8080
8080
8080
8080
8080
8080
8080
8080
8080
7F00
ENDCHAR
STARTCHAR 014E
ENCODING 334
SWIDTH 535 0
DWIDTH 15 0
BBX 11 23 2 1
BITMAP
1080
1080
0F00
7FC0
8020
8020
8020
8020
8020
8020
8020
8020
8020
8020
8020
8020
8020
8020
8020
8020
8020
8020
7FC0
ENDCHAR
STARTCHAR 014F
ENCODING 335
SWIDTH 464 0
DWIDTH 13 0
BBX 9 20 2 0
BITMAP
4100
4100
4100
3E00
0000
0000
7F00
8080
8080
8080
8080
8080
8080
8080
8080
8080
8080
8080
8080
7F00
ENDCHAR
STARTCHAR 0150
ENCODING 336
SWIDTH 535 0
DWIDTH 15 0
BBX 11 23 2 0
BITMAP
0480
0900
1200
7FC0
8020
8020
8020
8020
8020
8020
8020
8020
8020
8020
8020
8020
8020
8020
8020
8020
8020
8020
7FC0
ENDCHAR
STARTCHAR 0151
ENCODING 337
SWIDTH 464 0
DWIDTH 13 0
BBX 8 20 2 0
BITMAP
01
1A
12
04
00
00
7E
81
81
81
81
81
81
81
81
81
81
81
81
7E
ENDCHAR
STARTCHAR 0152
ENCODING 338
SWIDTH 821 0
DWIDTH 23 0
BBX 20 20 2 0
BITMAP
7FFFF0
802000
802000
802000
802000
802000
802000
802000
802000
803FC0
802000
802000
802000
802000
802000
802000
802000
802000
802000
7FFFF0
ENDCHAR
STARTCHAR 0153
ENCODING 339
SWIDTH 750 0
DWIDTH 21 0
BBX 17 14 2 0
BITMAP
7F7F00
808080
808080
808080
808080
80FF80
808000
808000
808000
808000
808000
808000
808000
7F7F80
ENDCHAR
STARTCHAR 0154
ENCODING 340
SWIDTH 571 0
DWIDTH 16 0
BBX 12 24 2 0
BITMAP
0100
0200
0400
0000
FFC0
8020
8020
8020
8020
8020
8020
8020
8020
FFC0
8100
8080
8080
8080
8040
8040
8020
8020
8020
8010
ENDCHAR
STARTCHAR 0155
ENCODING 341
SWIDTH 285 0
DWIDTH 8 0
BBX 5 20 2 0
BITMAP
08
10
10
20
00
00
F8
80
80
80
80
80
80
80
80
80
80
80
80
80
ENDCHAR
STARTCHAR 0156
ENCODING 342
SWIDTH 571 0
DWIDTH 16 0
BBX 12 25 2 -6
BITMAP
FFC0
8020
8020
8020
8020
8020
8020
8020
8020
FFC0
8080
8080
8080
8040
8040
8040
8020
8020
8010
8010
0000
0200
0200
0200
0400
ENDCHAR
STARTCHAR 0157
ENCODING 343
SWIDTH 285 0
DWIDTH 8 0
BBX 6 20 1 -6
BITMAP
7C
40
40
40
40
40
40
40
40
40
40
40
40
40
00
40
40
40
80
80
ENDCHAR
STARTCHAR 0158
ENCODING 344
SWIDTH 571 0
DWIDTH 16 0
BBX 12 23 2 1
BITMAP
1200
0C00
0000
FFC0
8020
8020
8020
8020
8020
8020
8020
8020
FFC0
8100
8080
8080
8080
8040
8040
8020
8020
8020
8010
ENDCHAR
STARTCHAR 0159
ENCODING 345
SWIDTH 285 0
DWIDTH 8 0
BBX 7 20 2 0
BITMAP
82
44
28
10
00
00
FC
80
80
80
80
80
80
80
80
80
80
80
80
80
ENDCHAR
STARTCHAR 015A
ENCODING 346
SWIDTH 500 0
DWIDTH 14 0
BBX 10 24 2 0
BITMAP
0200
0400
0800
0000
7FC0
8000
8000
8000
8000
8000
4000
2000
1000
0C00
0600
0100
0080
0040
0040
0040
0040
0040
0040
FF80
ENDCHAR
STARTCHAR 015B
ENCODING 347
SWIDTH 392 0
DWIDTH 11 0
BBX 8 20 2 0
BITMAP
04
08
10
00
00
00
7F
80
80
80
40
20
18
0C
02
01
01
01
01
FE
ENDCHAR
STARTCHAR 015C
ENCODING 348
SWIDTH 500 0
DWIDTH 14 0
BBX 10 23 2 1
BITMAP
0C00
1200
0000
7FC0
8000
8000
8000
8000
8000
4000
2000
1000
0C00
0600
0100
0080
0040
0040
0040
0040
0040
0040
FF80
ENDCHAR
STARTCHAR 015D
ENCODING 349
SWIDTH 392 0
DWIDTH 11 0
BBX 8 20 2 0
BITMAP
08
18
24
02
00
00
7E
80
80
80
40
20
18
0C
02
01
01
01
01
FE
ENDCHAR
STARTCHAR 015E
ENCODING 350
SWIDTH 500 0
DWIDTH 14 0
BBX 10 26 2 -6
BITMAP
7FC0
8000
8000
8000
8000
8000
4000
2000
1000
0C00
0600
0100
0080
0040
0040
0040
0040
0040
0040
FF80
0800
0E00
0100
0100
0100
1E00
ENDCHAR
STARTCHAR 015F
ENCODING 351
SWIDTH 392 0
DWIDTH 11 0
BBX 8 20 2 -6
BITMAP
7F
80
80
80
40
20
18
0C
02
01
01
01
01
FE
20
18
04
04
04
38
ENDCHAR
STARTCHAR 0160
ENCODING 352
SWIDTH 500 0
DWIDTH 14 0
BBX 10 24 2 0
BITMAP
2100
1200
0C00
0000
7FC0
8000
8000
8000
8000
8000
4000
2000
1000
0C00
0600
0100
0080
0040
0040
0040
0040
0040
0040
FF80
ENDCHAR
STARTCHAR 0161
ENCODING 353
SWIDTH 392 0
DWIDTH 11 0
BBX 8 20 2 0
BITMAP
82
44
28
10
00
00
7C
80
80
80
40
20
18
0C
02
01
01
01
01
FE
ENDCHAR
STARTCHAR 0162
ENCODING 354
SWIDTH 464 0
DWIDTH 13 0
BBX 11 26 1 -6
BITMAP
FFE0
0400
0400
0400
0400
0400
0400
0400
0400
0400
0400
0400
0400
0400
0400
0400
0400
0400
0400
0400
0000
0400
0400
0400
0800
0800
ENDCHAR
STARTCHAR 0163
ENCODING 355
SWIDTH 285 0
DWIDTH 8 0
BBX 5 22 2 -5
BITMAP
80
80
80
F8
80
80
80
80
80
80
80
80
80
80
80
80
78
00
10
10
10
20
ENDCHAR
STARTCHAR 0164
ENCODING 356
SWIDTH 464 0
DWIDTH 13 0
BBX 12 24 1 0
BITMAP
1000
0900
0600
0000
FFF0
0200
0200
0200
0200
0200
0200
0200
0200
0200
0200
0200
0200
0200
0200
0200
0200
0200
0200
0200
ENDCHAR
STARTCHAR 0165
ENCODING 357
SWIDTH 285 0
DWIDTH 8 0
BBX 5 20 2 0
BITMAP
10
10
90
90
80
80
F8
80
80
80
80
80
80
80
80
80
80
80
80
78
ENDCHAR
STARTCHAR 0166
ENCODING 358
SWIDTH 464 0
DWIDTH 13 0
BBX 12 20 1 0
BITMAP
FFF0
0200
0200
0200
0200
0200
0200
0200
0200
0200
0200
7FE0
0200
0200
0200
0200
0200
0200
0200
0200
ENDCHAR
STARTCHAR 0167
ENCODING 359
SWIDTH 285 0
DWIDTH 8 0
BBX 7 17 1 1
BITMAP
20
20
20
3E
20
20
20
20
FE
20
20
20
20
20
20
20
1E
ENDCHAR
STARTCHAR 0168
ENCODING 360
SWIDTH 535 0
DWIDTH 15 0
BBX 11 23 2 0
BITMAP
3840
4440
4380
0000
8060
8060
8060
8060
8060
8060
8060
8060
8060
8060
8060
8060
8060
8060
8060
8060
8060
8060
7FC0
ENDCHAR
STARTCHAR 0169
ENCODING 361
SWIDTH 464 0
DWIDTH 13 0
BBX 9 20 2 0
BITMAP
6080
9080
8880
8700
0000
0000
8080
8080
8080
8080
8080
8080
8080
8080
8080
8080
8080
8080
8080
7F80
ENDCHAR
STARTCHAR 016A
ENCODING 362
SWIDTH 535 0
DWIDTH 15 0
BBX 11 22 2 0
BITMAP
1F00
0000
0000
8020
8020
8020
8020
8020
8020
8020
8020
8020
8020
8020
8020
8020
8020
8020
8020
8020
8020
7FC0
ENDCHAR
STARTCHAR 016B
ENCODING 363
SWIDTH 464 0
DWIDTH 13 0
BBX 9 18 2 0
BITMAP
3E00
0000
0000
0000
8080
8080
8080
8080
8080
8080
8080
8080
8080
8080
8080
8080
8080
7F80
ENDCHAR
STARTCHAR 016C
ENCODING 364
SWIDTH 535 0
DWIDTH 15 0
BBX 11 23 2 1
BITMAP
1080
1080
0F00
0000
8020
8020
8020
8020
8020
8020
8020
8020
8020
8020
8020
8020
8020
8020
8020
8020
8020
8020
7FC0
ENDCHAR
STARTCHAR 016D
ENCODING 365
SWIDTH 464 0
DWIDTH 13 0
BBX 9 20 2 0
BITMAP
4100
4100
4100
3E00
0000
0000
8080
8080
8080
8080
8080
8080
8080
8080
8080
8080
8080
8080
8080
7F80
ENDCHAR
STARTCHAR 016E
ENCODING 366
SWIDTH 535 0
DWIDTH 15 0
BBX 11 24 2 0
BITMAP
0F00
1080
1080
0F00
0000
8020
8020
8020
8020
8020
8020
8020
8020
8020
8020
8020
8020
8020
8020
8020
8020
8020
8020
7FC0
ENDCHAR
STARTCHAR 016F
ENCODING 367
SWIDTH 464 0
DWIDTH 13 0
BBX 9 21 2 0
BITMAP
1E00
2100
2100
2100
1E00
0000
0000
8080
8080
8080
8080
8080
8080
8080
8080
8080
8080
8080
8080
8080
7F80
ENDCHAR
STARTCHAR 0170
ENCODING 368
SWIDTH 535 0
DWIDTH 15 0
BBX 11 23 2 0
BITMAP
0480
0900
1200
0000
8020
8020
8020
8020
8020
8020
8020
8020
8020
8020
8020
8020
8020
8020
8020
8020
8020
8020
7FC0
ENDCHAR
STARTCHAR 0171
ENCODING 369
SWIDTH 464 0
DWIDTH 13 0
BBX 9 20 2 0
BITMAP
0900
1200
2200
2400
0000
0000
8080
8080
8080
8080
8080
8080
8080
8080
8080
8080
8080
8080
8080
7F80
ENDCHAR
STARTCHAR 0172
ENCODING 370
SWIDTH 535 0
DWIDTH 15 0
BBX 11 25 2 -5
BITMAP
8020
8020
8020
8020
8020
8020
8020
8020
8020
8020
8020
8020
8020
8020
8020
8020
8020
8020
8020
7FC0
0200
0400
0800
0800
0F00
ENDCHAR
STARTCHAR 0173
ENCODING 371
SWIDTH 464 0
DWIDTH 13 0
BBX 9 20 2 -6
BITMAP
8080
8080
8080
8080
8080
8080
8080
8080
8080
8080
8080
8080
8080
7F80
0100
0200
0400
0400
0400
0380
ENDCHAR
STARTCHAR 0174
ENCODING 372
SWIDTH 785 0
DWIDTH 22 0
BBX 20 23 1 1
BITMAP
006000
009000
000000
800010
806010
806020
806020
40A020
40A020
409040
409040
211040
211040
210880
110880
110880
120880
120900
0A0500
0A0500
0C0500
0C0600
040200
ENDCHAR
STARTCHAR 0175
ENCODING 373
SWIDTH 607 0
DWIDTH 17 0
BBX 15 19 1 1
BITMAP
0180
0240
0420
0000
0000
8082
8182
8184
4284
4284
4244
2248
2448
2448
1448
1430
1430
1830
0810
ENDCHAR
STARTCHAR 0176
ENCODING 374
SWIDTH 535 0
DWIDTH 15 0
BBX 14 23 0 1
BITMAP
0300
0480
0000
8004
8008
4008
2010
2010
1020
0820
0840
0440
0280
0300
0100
0100
0100
0100
0100
0100
0100
0100
0100
ENDCHAR
STARTCHAR 0177
ENCODING 375
SWIDTH 392 0
DWIDTH 11 0
BBX 10 25 1 -5
BITMAP
0C00
1200
2100
0000
0000
8040
8040
4080
4080
4080
4100
2100
2100
2200
1200
1200
1400
0C00
0C00
0800
0800
0800
1000
1000
1000
ENDCHAR
STARTCHAR 0178
ENCODING 376
SWIDTH 535 0
DWIDTH 15 0
BBX 14 22 0 0
BITMAP
0480
0000
0000
8004
4008
4008
2010
1010
0820
0840
0440
0280
0280
0100
0100
0100
0100
0100
0100
0100
0100
0100
ENDCHAR
STARTCHAR 0179
ENCODING 377
SWIDTH 500 0
DWIDTH 14 0
BBX 11 24 1 0
BITMAP
0100
0200
0400
0000
FFE0
0040
0040
0080
0080
0100
0100
0200
0200
0400
0400
0800
1000
1000
2000
2000
4000
4000
8000
FFE0
ENDCHAR
STARTCHAR 017A
ENCODING 378
SWIDTH 392 0
DWIDTH 11 0
BBX 9 20 1 0
BITMAP
0200
0400
0800
0000
0000
0000
FF80
0100
0100
0200
0400
0400
0800
0800
1000
2000
2000
4000
8000
FF80
ENDCHAR
STARTCHAR 017B
ENCODING 379
SWIDTH 500 0
DWIDTH 14 0
BBX 11 22 1 0
BITMAP
0400
0000
FFE0
0060
0040
0080
0080
0100
0100
0200
0200
0400
0400
0800
1000
1000
2000
2000
4000
4000
8000
FFE0
ENDCHAR
STARTCHAR 017C
ENCODING 380
SWIDTH 392 0
DWIDTH 11 0
BBX 9 17 1 0
BITMAP
0800
0000
0000
FF80
0100
0100
0200
0400
0400
0800
0800
1000
2000
2000
4000
8000
FF80
ENDCHAR
STARTCHAR 017D
ENCODING 381
SWIDTH 500 0
DWIDTH 14 0
BBX 11 24 1 0
BITMAP
0080
0900
0600
0000
FFE0
0040
0040
0080
0080
0100
0100
0200
0200
0400
0400
0800
1000
1000
2000
2000
4000
4000
8000
FFE0
ENDCHAR
STARTCHAR 017E
ENCODING 382
SWIDTH 392 0
DWIDTH 11 0
BBX 9 20 1 0
BITMAP
0100
2200
1400
0800
0000
0000
FF80
0100
0100
0200
0400
0400
0800
0800
1000
2000
2000
4000
8000
FF80
ENDCHAR
STARTCHAR 0192
ENCODING 402
SWIDTH 285 0
DWIDTH 8 0
BBX 9 26 -1 -6
BITMAP
0780
0800
0800
0800
0800
0800
0F80
0800
0800
0800
0800
0800
0800
0800
0800
0800
0800
0800
0800
0800
0800
0800
0800
0800
0800
F000
ENDCHAR
STARTCHAR 0218
ENCODING 536
SWIDTH 464 0
DWIDTH 13 0
BBX 9 20 2 0
BITMAP
0200
0400
0800
0000
0000
0000
FF00
0080
0080
0080
0080
7F80
8080
8080
8080
8080
8080
8080
8080
7F80
ENDCHAR
STARTCHAR 0219
ENCODING 537
SWIDTH 500 0
DWIDTH 14 0
BBX 10 26 2 -6
BITMAP
7FC0
8000
8000
8000
8000
8000
4000
2000
1000
0C00
0600
0100
0080
0040
0040
0040
0040
0040
0040
FF80
0000
0400
0400
0400
0800
0800
ENDCHAR
STARTCHAR 02C6
ENCODING 710
SWIDTH 392 0
DWIDTH 11 0
BBX 6 3 2 17
BITMAP
30
48
84
ENDCHAR
STARTCHAR 02C7
ENCODING 711
SWIDTH 392 0
DWIDTH 11 0
BBX 6 4 2 16
BITMAP
84
88
50
30
ENDCHAR
STARTCHAR 02D8
ENCODING 728
SWIDTH 357 0
DWIDTH 10 0
BBX 6 4 2 16
BITMAP
84
84
84
78
ENDCHAR
STARTCHAR 02D9
ENCODING 729
SWIDTH 178 0
DWIDTH 5 0
BBX 1 1 2 16
BITMAP
80
ENDCHAR
STARTCHAR 02DA
ENCODING 730
SWIDTH 357 0
DWIDTH 10 0
BBX 6 5 2 16
BITMAP
78
84
84
84
78
ENDCHAR
STARTCHAR 02DB
ENCODING 731
SWIDTH 321 0
DWIDTH 9 0
BBX 4 6 2 -6
BITMAP
30
40
80
80
80
70
ENDCHAR
STARTCHAR 02DC
ENCODING 732
SWIDTH 464 0
DWIDTH 13 0
BBX 9 4 2 16
BITMAP
6080
9080
8880
8700
ENDCHAR
STARTCHAR 02DD
ENCODING 733
SWIDTH 392 0
DWIDTH 11 0
BBX 6 4 2 16
BITMAP
24
48
90
90
ENDCHAR
STARTCHAR 0394
ENCODING 916
SWIDTH 500 0
DWIDTH 14 0
BBX 13 20 1 0
BITMAP
0200
0600
0500
0500
0900
0880
0880
0880
1040
1040
1040
2040
2020
2020
4020
4010
4010
8010
8008
FFF8
ENDCHAR
STARTCHAR 03A9
ENCODING 937
SWIDTH 535 0
DWIDTH 15 0
BBX 11 20 2 0
BITMAP
7FC0
8020
8020
8020
8020
8020
8020
8020
8020
8020
8020
8020
8020
8020
7BC0
0A00
0A00
0A00
0A00
FBE0
ENDCHAR
STARTCHAR 03C0
ENCODING 960
SWIDTH 464 0
DWIDTH 13 0
BBX 11 15 1 0
BITMAP
7020
A820
A620
A1C0
2080
2080
2080
2080
2080
2080
2080
2080
2080
2080
2080
ENDCHAR
STARTCHAR 2013
ENCODING 8211
SWIDTH 464 0
DWIDTH 13 0
BBX 10 1 1 8
BITMAP
FFC0
ENDCHAR
STARTCHAR 2014
ENCODING 8212
SWIDTH 714 0
DWIDTH 20 0
BBX 17 1 1 8
BITMAP
FFFF80
ENDCHAR
STARTCHAR 2018
ENCODING 8216
SWIDTH 178 0
DWIDTH 5 0
BBX 2 5 2 15
BITMAP
40
40
80
80
80
ENDCHAR
STARTCHAR 2019
ENCODING 8217
SWIDTH 178 0
DWIDTH 5 0
BBX 2 5 1 14
BITMAP
40
40
40
80
80
ENDCHAR
STARTCHAR 201A
ENCODING 8218
SWIDTH 178 0
DWIDTH 5 0
BBX 2 5 1 -3
BITMAP
40
40
40
80
80
ENDCHAR
STARTCHAR 201C
ENCODING 8220
SWIDTH 285 0
DWIDTH 8 0
BBX 5 5 2 15
BITMAP
48
48
90
90
90
ENDCHAR
STARTCHAR 201D
ENCODING 8221
SWIDTH 285 0
DWIDTH 8 0
BBX 5 5 1 14
BITMAP
48
48
48
90
90
ENDCHAR
STARTCHAR 201E
ENCODING 8222
SWIDTH 285 0
DWIDTH 8 0
BBX 5 5 1 -3
BITMAP
48
48
48
90
90
ENDCHAR
STARTCHAR 2020
ENCODING 8224
SWIDTH 464 0
DWIDTH 13 0
BBX 13 20 0 0
BITMAP
0200
0200
0200
0200
0200
0200
FFF8
0200
0200
0200
0200
0200
0200
0200
0200
0200
0200
0200
0200
0200
ENDCHAR
STARTCHAR 2021
ENCODING 8225
SWIDTH 500 0
DWIDTH 14 0
BBX 13 20 1 0
BITMAP
0200
0200
0200
0200
0200
0200
FFF8
0200
0200
0200
0200
0200
FFF8
0200
0200
0200
0200
0200
0200
0200
ENDCHAR
STARTCHAR 2022
ENCODING 8226
SWIDTH 428 0
DWIDTH 12 0
BBX 7 12 2 1
BITMAP
FE
FE
FE
FE
FE
FE
FE
FE
FE
FE
FE
FE
ENDCHAR
STARTCHAR 2026
ENCODING 8230
SWIDTH 607 0
DWIDTH 17 0
BBX 12 1 2 1
BITMAP
8210
ENDCHAR
STARTCHAR 2030
ENCODING 8240
SWIDTH 785 0
DWIDTH 22 0
BBX 20 20 1 0
BITMAP
781000
842000
842000
844000
848000
848000
850000
850000
860000
7A0000
040000
05E1E0
0A1210
0A1210
121210
121210
221210
421210
421210
81E1E0
ENDCHAR
STARTCHAR 2039
ENCODING 8249
SWIDTH 321 0
DWIDTH 9 0
BBX 7 11 1 3
BITMAP
02
04
08
30
40
80
40
20
10
08
06
ENDCHAR
STARTCHAR 203A
ENCODING 8250
SWIDTH 321 0
DWIDTH 9 0
BBX 7 11 1 3
BITMAP
80
40
20
18
04
02
04
08
10
20
C0
ENDCHAR
STARTCHAR 2044
ENCODING 8260
SWIDTH 392 0
DWIDTH 11 0
BBX 11 20 0 0
BITMAP
0020
0020
0040
0040
0080
0080
0100
0200
0200
0400
0400
0800
0800
1000
1000
2000
2000
4000
4000
8000
ENDCHAR
STARTCHAR 20AC
ENCODING 8364
SWIDTH 500 0
DWIDTH 14 0
BBX 11 20 1 0
BITMAP
3FE0
4000
4000
4000
4000
4000
4000
FF80
4000
4000
4000
FF80
4000
4000
4000
4000
4000
4000
4000
3FE0
ENDCHAR
STARTCHAR 2122
ENCODING 8482
SWIDTH 500 0
DWIDTH 14 0
BBX 11 10 2 12
BITMAP
8000
8000
9FE0
9120
9120
9120
9120
9120
9120
D120
ENDCHAR
STARTCHAR 2202
ENCODING 8706
SWIDTH 500 0
DWIDTH 14 0
BBX 10 20 2 0
BITMAP
4000
2000
1000
0800
0400
0200
0100
0080
0040
7FC0
8040
8040
8040
8040
8040
8040
8040
8040
8040
7F80
ENDCHAR
STARTCHAR 220F
ENCODING 8719
SWIDTH 535 0
DWIDTH 15 0
BBX 11 20 2 0
BITMAP
FFE0
8020
8020
8020
8020
8020
8020
8020
8020
8020
8020
8020
8020
8020
8020
8020
8020
8020
8020
8020
ENDCHAR
STARTCHAR 2211
ENCODING 8721
SWIDTH 500 0
DWIDTH 14 0
BBX 11 20 1 0
BITMAP
FFE0
8000
4000
4000
2000
2000
1000
0800
0800
0400
0400
0800
0800
1000
2000
2000
4000
4000
8000
FFE0
ENDCHAR
STARTCHAR 221A
ENCODING 8730
SWIDTH 678 0
DWIDTH 19 0
BBX 16 19 1 1
BITMAP
0001
0002
0002
0004
0004
FC08
0408
0410
0410
0420
0420
0440
0440
0480
0500
0500
0600
0600
0400
ENDCHAR
STARTCHAR 221E
ENCODING 8734
SWIDTH 750 0
DWIDTH 21 0
BBX 19 10 1 5
BITMAP
7FBFC0
80E020
804020
804020
804020
804020
804020
804020
806020
7FBFC0
ENDCHAR
STARTCHAR 222B
ENCODING 8747
SWIDTH 250 0
DWIDTH 7 0
BBX 9 26 -1 -6
BITMAP
0780
0800
0800
0800
0800
0800
0800
0800
0800
0800
0800
0800
0800
0800
0800
0800
0800
0800
0800
0800
0800
0800
0800
0800
0800
F000
ENDCHAR
STARTCHAR 2248
ENCODING 8776
SWIDTH 464 0
DWIDTH 13 0
BBX 11 9 1 4
BITMAP
7020
C820
8620
81C0
0000
7020
C820
8620
81C0
ENDCHAR
STARTCHAR 2260
ENCODING 8800
SWIDTH 464 0
DWIDTH 13 0
BBX 10 13 1 2
BITMAP
0080
0100
0100
FFC0
0200
0400
0800
0800
1000
FFC0
2000
2000
4000
ENDCHAR
STARTCHAR 2264
ENCODING 8804
SWIDTH 464 0
DWIDTH 13 0
BBX 10 14 1 1
BITMAP
0080
0300
0C00
3000
4000
C000
2000
1800
0600
0100
00C0
0000
0000
FFC0
ENDCHAR
STARTCHAR 2265
ENCODING 8805
SWIDTH 464 0
DWIDTH 13 0
BBX 10 14 1 1
BITMAP
4000
3000
0C00
0300
0080
00C0
0100
0600
1800
2000
C000
0000
0000
FFC0
ENDCHAR
STARTCHAR 25CA
ENCODING 9674
SWIDTH 500 0
DWIDTH 14 0
BBX 11 26 2 -6
BITMAP
0400
0A00
0A00
0A00
1100
1100
2080
2080
2080
4040
4040
8040
8020
8020
8040
4040
4040
2080
2080
2100
1100
1100
1200
0A00
0C00
0400
ENDCHAR
STARTCHAR F6C3
ENCODING 63171
SWIDTH 178 0
DWIDTH 5 0
BBX 2 5 1 -6
BITMAP
40
40
40
80
80
ENDCHAR
STARTCHAR F6C9
ENCODING 63177
SWIDTH 464 0
DWIDTH 13 0
BBX 2 2 7 21
BITMAP
40
80
ENDCHAR
STARTCHAR F6CA
ENCODING 63178
SWIDTH 392 0
DWIDTH 11 0
BBX 4 1 3 22
BITMAP
F0
ENDCHAR
STARTCHAR F6CB
ENCODING 63179
SWIDTH 285 0
DWIDTH 8 0
BBX 4 1 2 21
BITMAP
90
ENDCHAR
STARTCHAR F6CE
ENCODING 63182
SWIDTH 285 0
DWIDTH 8 0
BBX 2 1 3 22
BITMAP
C0
ENDCHAR
STARTCHAR F6CF
ENCODING 63183
SWIDTH 392 0
DWIDTH 11 0
BBX 6 3 2 20
BITMAP
24
48
90
ENDCHAR
STARTCHAR F6D0
ENCODING 63184
SWIDTH 357 0
DWIDTH 10 0
BBX 5 1 2 21
BITMAP
F8
ENDCHAR
STARTCHAR FB01
ENCODING 64257
SWIDTH 428 0
DWIDTH 12 0
BBX 8 20 2 0
BITMAP
7F
80
80
80
80
80
FF
81
81
81
81
81
81
81
81
81
81
81
81
81
ENDCHAR
STARTCHAR FB02
ENCODING 64258
SWIDTH 428 0
DWIDTH 12 0
BBX 8 20 2 0
BITMAP
79
81
81
81
81
81
FF
81
81
81
81
81
81
81
81
81
81
81
81
81
ENDCHAR
ENDFONT
